<svg width="124" height="40" viewBox="0 0 124 40" fill="none" xmlns="http://www.w3.org/2000/svg">
<rect y="0.00927734" width="124" height="39.2778" rx="6" fill="#1C1C1C"/>
<path d="M24.9295 8.13574C25.0799 9.40482 24.5382 10.6554 23.7465 11.5746C22.9203 12.4795 21.5987 13.1717 20.3115 13.0825C20.143 11.8614 20.7952 10.5629 21.5253 9.77065C22.3506 8.87162 23.7836 8.18284 24.9295 8.13574Z" fill="white"/>
<path d="M29.1433 15.4566C28.9997 15.5362 26.6191 16.8554 26.6452 19.5456C26.6759 22.7944 29.7069 23.8684 29.7431 23.8793C29.725 23.955 29.2685 25.431 28.1316 26.9263C27.1823 28.245 26.1877 29.5342 24.6079 29.5561C23.8566 29.5726 23.3494 29.3721 22.8208 29.1632C22.2697 28.9454 21.6954 28.7185 20.797 28.7185C19.8447 28.7185 19.2449 28.9529 18.6665 29.179C18.1661 29.3747 17.6817 29.564 16.9989 29.5898C15.4942 29.6411 14.3447 28.1836 13.361 26.8767C11.3944 24.2099 9.86354 19.3615 11.9162 16.0622C12.9108 14.4441 14.7243 13.4021 16.6628 13.3744C17.5164 13.3582 18.3351 13.6636 19.0529 13.9313C19.6017 14.1361 20.0915 14.3188 20.4927 14.3188C20.845 14.3188 21.3211 14.1434 21.8759 13.9389C22.7503 13.6167 23.8204 13.2224 24.9105 13.3289C25.656 13.3491 27.7775 13.6023 29.1462 15.455L29.1433 15.4566Z" fill="white"/>
<path fill-rule="evenodd" clip-rule="evenodd" d="M40.0406 8.86006H37.9142V14.7339H40.0406C41.9215 14.7339 43.0264 13.6471 43.0264 11.795C43.0264 9.94691 41.9171 8.86006 40.0406 8.86006ZM38.7034 9.51949V14.0745H39.988C41.4217 14.0745 42.2197 13.2604 42.2197 11.8031C42.2197 10.3336 41.4261 9.51949 39.988 9.51949H38.7034Z" fill="white"/>
<path fill-rule="evenodd" clip-rule="evenodd" d="M46.0747 14.8072C44.812 14.8072 43.9614 13.9646 43.9614 12.6172C43.9614 11.2658 44.812 10.4272 46.0747 10.4272C47.3331 10.4272 48.1836 11.2658 48.1836 12.6172C48.1836 13.9646 47.3331 14.8072 46.0747 14.8072ZM47.4076 12.6172C47.4076 13.6145 46.8815 14.1844 46.0747 14.1844C45.268 14.1844 44.7375 13.6145 44.7375 12.6172C44.7375 11.6199 45.268 11.05 46.0747 11.05C46.8815 11.05 47.4076 11.6199 47.4076 12.6172Z" fill="white"/>
<path d="M53.0033 14.7339H53.7793L55.0508 10.5005H54.2967L53.3847 13.9442H53.3672L52.3325 10.5005H51.5959L50.5656 13.9442H50.548L49.6361 10.5005H48.8775L50.1534 14.7339H50.9295L51.9554 11.4571H51.9729L53.0033 14.7339Z" fill="white"/>
<path d="M56.6918 10.5005H55.9727V14.7339H56.7356V12.2427C56.7356 11.5263 57.2047 11.0541 57.9238 11.0541C58.6253 11.0541 58.9717 11.4286 58.9717 12.1125V14.7339H59.7345V11.9863C59.7345 11.0256 59.1558 10.4272 58.1562 10.4272C57.4503 10.4272 56.9636 10.7203 56.7093 11.1762H56.6918V10.5005Z" fill="white"/>
<path d="M61.0423 8.86006V14.7339H61.8052V8.86006H61.0423Z" fill="white"/>
<path fill-rule="evenodd" clip-rule="evenodd" d="M62.9112 12.6172C62.9112 13.9646 63.7618 14.8072 65.0245 14.8072C66.2828 14.8072 67.1334 13.9646 67.1334 12.6172C67.1334 11.2658 66.2828 10.4272 65.0245 10.4272C63.7618 10.4272 62.9112 11.2658 62.9112 12.6172ZM65.0245 14.1844C65.8312 14.1844 66.3574 13.6145 66.3574 12.6172C66.3574 11.6199 65.8312 11.05 65.0245 11.05C64.2178 11.05 63.6872 11.6199 63.6872 12.6172C63.6872 13.6145 64.2178 14.1844 65.0245 14.1844Z" fill="white"/>
<path fill-rule="evenodd" clip-rule="evenodd" d="M69.5329 14.8072C68.6253 14.8072 68.0158 14.2984 68.0158 13.5372C68.0158 12.8126 68.6165 12.3567 69.6688 12.2997L70.9753 12.2305V11.8764C70.9753 11.3594 70.607 11.05 69.9757 11.05C69.3882 11.05 69.0199 11.3065 68.9234 11.7217H68.1868C68.2394 10.989 68.9146 10.4272 69.9932 10.4272C71.063 10.4272 71.7382 10.9646 71.7382 11.8072V14.7339H71.0148V14.0053H70.9972C70.7254 14.4897 70.1467 14.8072 69.5329 14.8072ZM70.9753 13.126C70.9753 13.7366 70.4229 14.2048 69.7038 14.2048C69.1558 14.2048 68.7919 13.9402 68.7919 13.5372C68.7919 13.1383 69.1426 12.8859 69.7565 12.8492L70.9753 12.78V13.126Z" fill="white"/>
<path fill-rule="evenodd" clip-rule="evenodd" d="M72.7829 12.6172C72.7829 13.9442 73.5721 14.8072 74.7339 14.8072C75.3916 14.8072 75.9133 14.506 76.2071 14.0175H76.2203V14.7339H76.9481V8.86006H76.1852V11.1884H76.1676C75.8958 10.7244 75.3697 10.4272 74.7164 10.4272C73.5677 10.4272 72.7829 11.2902 72.7829 12.6172ZM74.8786 11.05C74.0719 11.05 73.5633 11.6606 73.5633 12.6172C73.5633 13.5779 74.0719 14.1844 74.8786 14.1844C75.6634 14.1844 76.1896 13.5657 76.1896 12.6172C76.1896 11.6728 75.6634 11.05 74.8786 11.05Z" fill="white"/>
<path fill-rule="evenodd" clip-rule="evenodd" d="M82.3082 14.8072C81.0455 14.8072 80.1949 13.9646 80.1949 12.6172C80.1949 11.2658 81.0455 10.4272 82.3082 10.4272C83.5665 10.4272 84.4171 11.2658 84.4171 12.6172C84.4171 13.9646 83.5665 14.8072 82.3082 14.8072ZM83.641 12.6172C83.641 13.6145 83.1149 14.1844 82.3082 14.1844C81.5014 14.1844 80.9709 13.6145 80.9709 12.6172C80.9709 11.6199 81.5014 11.05 82.3082 11.05C83.1149 11.05 83.641 11.6199 83.641 12.6172Z" fill="white"/>
<path d="M86.2027 10.5005H85.4837V14.7339H86.2466V12.2427C86.2466 11.5263 86.7157 11.0541 87.4347 11.0541C88.1362 11.0541 88.4826 11.4286 88.4826 12.1125V14.7339H89.2455V11.9863C89.2455 11.0256 88.6668 10.4272 87.6671 10.4272C86.9612 10.4272 86.4745 10.7203 86.2203 11.1762H86.2027V10.5005Z" fill="white"/>
<path d="M93.6629 9.47879H92.9001V10.5005H92.2205V11.0826H92.9001V13.6349C92.9001 14.449 93.2245 14.7665 94.0619 14.7665C94.2417 14.7665 94.4521 14.7543 94.5442 14.7339V14.1396C94.4916 14.1478 94.3162 14.16 94.2285 14.16C93.8383 14.16 93.6629 13.9849 93.6629 13.5982V11.0826H94.5486V10.5005H93.6629V9.47879Z" fill="white"/>
<path d="M95.6985 8.86006V14.7339H96.4614V12.2671C96.4614 11.5344 96.9305 11.0541 97.689 11.0541C98.4037 11.0541 98.7676 11.4571 98.7676 12.1287V14.7339H99.5305V11.9985C99.5305 11.0541 98.9254 10.4272 97.9258 10.4272C97.233 10.4272 96.7332 10.704 96.4789 11.1762H96.4614V8.86006H95.6985Z" fill="white"/>
<path fill-rule="evenodd" clip-rule="evenodd" d="M104.574 13.5209H103.824C103.697 13.9198 103.272 14.1925 102.693 14.1925C101.873 14.1925 101.36 13.6593 101.36 12.8492V12.8085H104.631V12.5399C104.631 11.2576 103.872 10.4272 102.64 10.4272C101.382 10.4272 100.575 11.3187 100.575 12.6335C100.575 13.9646 101.369 14.8072 102.675 14.8072C103.671 14.8072 104.442 14.2617 104.574 13.5209ZM102.627 11.0419C101.912 11.0419 101.413 11.5507 101.364 12.2549H103.842C103.824 11.5467 103.346 11.0419 102.627 11.0419Z" fill="white"/>
<path fill-rule="evenodd" clip-rule="evenodd" d="M45.3021 29.1335L44.1972 26.1027H39.5936L38.4887 29.1335H36.5384L40.8993 17.9197H42.9249L47.2858 29.1335H45.3021ZM40.0707 24.7039L41.8703 19.7848H41.9205L43.7201 24.7039H40.0707Z" fill="white"/>
<path fill-rule="evenodd" clip-rule="evenodd" d="M57.1021 25.0459C57.1021 22.4581 55.629 20.8261 53.3941 20.8261C52.1218 20.8261 51.109 21.4245 50.5901 22.3648H50.5566V20.9582H48.8072V31.8378H50.6152V27.7891H50.657C51.1593 28.6983 52.1637 29.2734 53.4276 29.2734C55.6373 29.2734 57.1021 27.6337 57.1021 25.0459ZM52.917 27.8513C54.3483 27.8513 55.2439 26.7633 55.2439 25.0459C55.2439 23.3362 54.3483 22.2405 52.917 22.2405C51.5359 22.2405 50.6068 23.3595 50.6068 25.0459C50.6068 26.7477 51.5275 27.8513 52.917 27.8513Z" fill="white"/>
<path fill-rule="evenodd" clip-rule="evenodd" d="M63.4867 20.8261C65.7215 20.8261 67.1947 22.4581 67.1947 25.0459C67.1947 27.6337 65.7299 29.2734 63.5201 29.2734C62.2562 29.2734 61.2518 28.6983 60.7496 27.7891H60.7077V31.8378H58.8998V20.9582H60.6491V22.3648H60.6826C61.2016 21.4245 62.2144 20.8261 63.4867 20.8261ZM65.3365 25.0459C65.3365 26.7633 64.4409 27.8513 63.0095 27.8513C61.6201 27.8513 60.6994 26.7477 60.6994 25.0459C60.6994 23.3595 61.6285 22.2405 63.0095 22.2405C64.4409 22.2405 65.3365 23.3362 65.3365 25.0459Z" fill="white"/>
<path d="M74.4059 26.0095H72.556C72.6732 28.0378 74.4812 29.32 77.1597 29.32C80.0223 29.32 81.8219 28.0067 81.8219 25.9085C81.8219 24.2688 80.7924 23.344 78.3148 22.8L76.9839 22.4969C75.427 22.1395 74.7909 21.6732 74.7909 20.8805C74.7909 19.8858 75.7869 19.202 77.2434 19.202C78.6998 19.202 79.6959 19.8781 79.8047 20.9971H81.6294C81.5708 19.0621 79.8214 17.7332 77.2685 17.7332C74.6904 17.7332 72.8741 19.0621 72.8741 20.9971C72.8741 22.5591 73.9036 23.5227 76.1218 24.0201L77.687 24.3698C79.2522 24.7273 79.9135 25.2479 79.9135 26.1183C79.9135 27.1208 78.817 27.8513 77.2936 27.8513C75.7032 27.8513 74.5398 27.1208 74.4059 26.0095Z" fill="white"/>
<path d="M86.0385 19.0232H84.2222V20.9582H82.9415V22.2871H84.2222V26.9809C84.2222 28.5584 84.9169 29.1879 86.6998 29.1879C87.1015 29.1879 87.5033 29.1568 87.7042 29.1102V27.7813C87.587 27.8046 87.2941 27.8202 87.1099 27.8202C86.3733 27.8202 86.0385 27.5016 86.0385 26.7944V22.2871H87.7126V20.9582H86.0385V19.0232Z" fill="white"/>
<path fill-rule="evenodd" clip-rule="evenodd" d="M88.9996 25.0459C88.9996 27.6803 90.6569 29.2889 93.1764 29.2889C95.6958 29.2889 97.3531 27.6803 97.3531 25.0459C97.3531 22.4192 95.6874 20.8106 93.1764 20.8106C90.6653 20.8106 88.9996 22.4192 88.9996 25.0459ZM93.1764 27.9056C94.5993 27.9056 95.5117 26.8643 95.5117 25.0459C95.5117 23.2352 94.5909 22.1939 93.1764 22.1939C91.7618 22.1939 90.8411 23.2352 90.8411 25.0459C90.8411 26.8643 91.7618 27.9056 93.1764 27.9056Z" fill="white"/>
<path d="M99.1591 20.9582H100.883V22.3493H100.925C101.218 21.3934 102.005 20.8261 103.043 20.8261C103.302 20.8261 103.528 20.865 103.662 20.8883V22.4503C103.52 22.3959 103.202 22.3571 102.85 22.3571C101.687 22.3571 100.967 23.0798 100.967 24.2377V29.1335H99.1591V20.9582Z" fill="white"/>
<path fill-rule="evenodd" clip-rule="evenodd" d="M111.026 26.738H112.742C112.491 28.2301 110.968 29.2947 108.95 29.2947C106.364 29.2947 104.799 27.6706 104.799 25.0905C104.799 22.5261 106.389 20.8164 108.875 20.8164C111.319 20.8164 112.842 22.4173 112.842 24.8963V25.4713H106.623V25.5723C106.623 26.9945 107.544 27.9348 108.992 27.9348C110.022 27.9348 110.783 27.453 111.026 26.738ZM106.623 24.3944L111.026 24.3558C111.026 24.0113 110.871 23.3728 110.506 23.0342C110.141 22.6956 109.604 22.4385 108.875 22.4385C107.406 22.4385 106.623 23.3496 106.623 24.3944Z" fill="white"/>
</svg>
