<svg width="1180" height="120" viewBox="0 0 1180 120" fill="none" xmlns="http://www.w3.org/2000/svg">
<rect width="1180" height="120" rx="8" fill="#005ADE"/>
<path d="M0 6C0 2.68629 2.68629 0 6 0H700.47L745 120H6.00002C2.68631 120 0 117.314 0 114V6Z" fill="#237CFF"/>
<rect x="1020.5" y="39" width="121" height="40" rx="6" fill="#FF9017"/>
<path d="M1050.72 55.9205C1050.66 55.3826 1050.41 54.9659 1049.97 54.6705C1049.53 54.3712 1048.98 54.2216 1048.31 54.2216C1047.83 54.2216 1047.42 54.2973 1047.07 54.4489C1046.72 54.5966 1046.45 54.8011 1046.26 55.0625C1046.07 55.3201 1045.97 55.6136 1045.97 55.9432C1045.97 56.2197 1046.04 56.4583 1046.17 56.6591C1046.3 56.8598 1046.47 57.0284 1046.68 57.1648C1046.9 57.2973 1047.13 57.4091 1047.38 57.5C1047.62 57.5871 1047.86 57.6591 1048.09 57.7159L1049.22 58.0114C1049.6 58.1023 1049.98 58.2254 1050.37 58.3807C1050.76 58.536 1051.12 58.7405 1051.45 58.9943C1051.79 59.2481 1052.05 59.5625 1052.26 59.9375C1052.47 60.3125 1052.57 60.7614 1052.57 61.2841C1052.57 61.9432 1052.4 62.5284 1052.06 63.0398C1051.72 63.5511 1051.23 63.9545 1050.59 64.25C1049.95 64.5455 1049.17 64.6932 1048.26 64.6932C1047.39 64.6932 1046.64 64.5549 1046 64.2784C1045.37 64.0019 1044.87 63.6098 1044.51 63.1023C1044.15 62.5909 1043.95 61.9848 1043.91 61.2841H1045.67C1045.71 61.7045 1045.84 62.0549 1046.08 62.3352C1046.32 62.6117 1046.63 62.8182 1047.01 62.9545C1047.39 63.0871 1047.8 63.1534 1048.25 63.1534C1048.75 63.1534 1049.19 63.0758 1049.58 62.9205C1049.97 62.7614 1050.27 62.5417 1050.5 62.2614C1050.72 61.9773 1050.83 61.6458 1050.83 61.267C1050.83 60.9223 1050.73 60.6402 1050.54 60.4205C1050.34 60.2008 1050.08 60.0189 1049.75 59.875C1049.42 59.7311 1049.04 59.6042 1048.63 59.4943L1047.25 59.1193C1046.32 58.8655 1045.58 58.4924 1045.04 58C1044.5 57.5076 1044.22 56.8561 1044.22 56.0455C1044.22 55.375 1044.41 54.7898 1044.77 54.2898C1045.13 53.7898 1045.63 53.4015 1046.25 53.125C1046.87 52.8447 1047.57 52.7045 1048.35 52.7045C1049.14 52.7045 1049.83 52.8428 1050.43 53.1193C1051.04 53.3958 1051.52 53.7765 1051.87 54.2614C1052.21 54.7424 1052.4 55.2955 1052.41 55.9205H1050.72ZM1056.23 59.3182V64.5H1054.53V52.8636H1056.21V57.1932H1056.32C1056.52 56.7235 1056.83 56.3504 1057.25 56.0739C1057.67 55.7973 1058.22 55.6591 1058.9 55.6591C1059.5 55.6591 1060.02 55.7822 1060.47 56.0284C1060.92 56.2746 1061.27 56.642 1061.52 57.1307C1061.77 57.6155 1061.89 58.2216 1061.89 58.9489V64.5H1060.19V59.1534C1060.19 58.5133 1060.03 58.017 1059.7 57.6648C1059.37 57.3087 1058.91 57.1307 1058.32 57.1307C1057.92 57.1307 1057.56 57.2159 1057.24 57.3864C1056.93 57.5568 1056.68 57.8068 1056.5 58.1364C1056.32 58.4621 1056.23 58.8561 1056.23 59.3182ZM1067.83 64.6761C1067.02 64.6761 1066.3 64.4886 1065.69 64.1136C1065.08 63.7386 1064.61 63.214 1064.27 62.5398C1063.93 61.8655 1063.77 61.0777 1063.77 60.1761C1063.77 59.2708 1063.93 58.4792 1064.27 57.8011C1064.61 57.1231 1065.08 56.5966 1065.69 56.2216C1066.3 55.8466 1067.02 55.6591 1067.83 55.6591C1068.65 55.6591 1069.37 55.8466 1069.98 56.2216C1070.59 56.5966 1071.06 57.1231 1071.4 57.8011C1071.73 58.4792 1071.9 59.2708 1071.9 60.1761C1071.9 61.0777 1071.73 61.8655 1071.4 62.5398C1071.06 63.214 1070.59 63.7386 1069.98 64.1136C1069.37 64.4886 1068.65 64.6761 1067.83 64.6761ZM1067.84 63.25C1068.37 63.25 1068.81 63.1098 1069.16 62.8295C1069.51 62.5492 1069.76 62.1761 1069.93 61.7102C1070.1 61.2443 1070.19 60.7311 1070.19 60.1705C1070.19 59.6136 1070.1 59.1023 1069.93 58.6364C1069.76 58.1667 1069.51 57.7898 1069.16 57.5057C1068.81 57.2216 1068.37 57.0795 1067.84 57.0795C1067.31 57.0795 1066.86 57.2216 1066.51 57.5057C1066.16 57.7898 1065.9 58.1667 1065.73 58.6364C1065.56 59.1023 1065.48 59.6136 1065.48 60.1705C1065.48 60.7311 1065.56 61.2443 1065.73 61.7102C1065.9 62.1761 1066.16 62.5492 1066.51 62.8295C1066.86 63.1098 1067.31 63.25 1067.84 63.25ZM1073.8 67.7727V55.7727H1075.46V57.1875H1075.6C1075.7 57.0057 1075.84 56.7955 1076.03 56.5568C1076.21 56.3182 1076.47 56.1098 1076.8 55.9318C1077.13 55.75 1077.56 55.6591 1078.11 55.6591C1078.81 55.6591 1079.44 55.8371 1079.99 56.1932C1080.54 56.5492 1080.98 57.0625 1081.29 57.733C1081.61 58.4034 1081.77 59.2102 1081.77 60.1534C1081.77 61.0966 1081.61 61.9053 1081.3 62.5795C1080.98 63.25 1080.55 63.767 1080 64.1307C1079.45 64.4905 1078.83 64.6705 1078.12 64.6705C1077.59 64.6705 1077.16 64.5814 1076.82 64.4034C1076.49 64.2254 1076.23 64.017 1076.04 63.7784C1075.85 63.5398 1075.7 63.3277 1075.6 63.142H1075.5V67.7727H1073.8ZM1075.46 60.1364C1075.46 60.75 1075.55 61.2879 1075.73 61.75C1075.91 62.2121 1076.17 62.5739 1076.5 62.8352C1076.84 63.0928 1077.25 63.2216 1077.74 63.2216C1078.25 63.2216 1078.67 63.0871 1079.01 62.8182C1079.36 62.5455 1079.61 62.1761 1079.79 61.7102C1079.96 61.2443 1080.05 60.7197 1080.05 60.1364C1080.05 59.5606 1079.97 59.0436 1079.79 58.5852C1079.62 58.1269 1079.36 57.7652 1079.02 57.5C1078.68 57.2348 1078.25 57.1023 1077.74 57.1023C1077.25 57.1023 1076.83 57.2292 1076.49 57.483C1076.15 57.7367 1075.9 58.0909 1075.72 58.5455C1075.55 59 1075.46 59.5303 1075.46 60.1364ZM1089.61 59.3182V64.5H1087.91V55.7727H1089.54V57.1932H1089.65C1089.85 56.7311 1090.16 56.3598 1090.59 56.0795C1091.02 55.7992 1091.56 55.6591 1092.22 55.6591C1092.81 55.6591 1093.34 55.7841 1093.78 56.0341C1094.23 56.2803 1094.58 56.6477 1094.82 57.1364C1095.07 57.625 1095.19 58.2292 1095.19 58.9489V64.5H1093.49V59.1534C1093.49 58.5208 1093.33 58.0265 1093 57.6705C1092.67 57.3106 1092.22 57.1307 1091.64 57.1307C1091.25 57.1307 1090.9 57.2159 1090.59 57.3864C1090.29 57.5568 1090.05 57.8068 1089.87 58.1364C1089.69 58.4621 1089.61 58.8561 1089.61 59.3182ZM1101.15 64.6761C1100.33 64.6761 1099.61 64.4886 1099 64.1136C1098.39 63.7386 1097.92 63.214 1097.58 62.5398C1097.25 61.8655 1097.08 61.0777 1097.08 60.1761C1097.08 59.2708 1097.25 58.4792 1097.58 57.8011C1097.92 57.1231 1098.39 56.5966 1099 56.2216C1099.61 55.8466 1100.33 55.6591 1101.15 55.6591C1101.96 55.6591 1102.68 55.8466 1103.29 56.2216C1103.9 56.5966 1104.37 57.1231 1104.71 57.8011C1105.05 58.4792 1105.21 59.2708 1105.21 60.1761C1105.21 61.0777 1105.05 61.8655 1104.71 62.5398C1104.37 63.214 1103.9 63.7386 1103.29 64.1136C1102.68 64.4886 1101.96 64.6761 1101.15 64.6761ZM1101.15 63.25C1101.68 63.25 1102.12 63.1098 1102.47 62.8295C1102.82 62.5492 1103.08 62.1761 1103.24 61.7102C1103.41 61.2443 1103.5 60.7311 1103.5 60.1705C1103.5 59.6136 1103.41 59.1023 1103.24 58.6364C1103.08 58.1667 1102.82 57.7898 1102.47 57.5057C1102.12 57.2216 1101.68 57.0795 1101.15 57.0795C1100.62 57.0795 1100.17 57.2216 1099.82 57.5057C1099.47 57.7898 1099.21 58.1667 1099.04 58.6364C1098.88 59.1023 1098.79 59.6136 1098.79 60.1705C1098.79 60.7311 1098.88 61.2443 1099.04 61.7102C1099.21 62.1761 1099.47 62.5492 1099.82 62.8295C1100.17 63.1098 1100.62 63.25 1101.15 63.25ZM1108.74 64.5L1106.17 55.7727H1107.92L1109.63 62.1818H1109.72L1111.44 55.7727H1113.19L1114.9 62.1534H1114.98L1116.68 55.7727H1118.44L1115.87 64.5H1114.14L1112.37 58.1989H1112.24L1110.46 64.5H1108.74Z" fill="white"/>
<path opacity="0.7" d="M31.4091 78V66.3636H32.8182V71.5455H39.0227V66.3636H40.4318V78H39.0227V72.7955H32.8182V78H31.4091ZM45.6392 78.2045C45.0862 78.2045 44.5843 78.1004 44.1335 77.892C43.6828 77.6799 43.3248 77.375 43.0597 76.9773C42.7945 76.5758 42.6619 76.0909 42.6619 75.5227C42.6619 75.0227 42.7604 74.6174 42.9574 74.3068C43.1544 73.9924 43.4176 73.7462 43.7472 73.5682C44.0767 73.3902 44.4403 73.2576 44.8381 73.1705C45.2396 73.0795 45.643 73.0076 46.0483 72.9545C46.5786 72.8864 47.0085 72.8352 47.3381 72.8011C47.6714 72.7633 47.9138 72.7008 48.0653 72.6136C48.2206 72.5265 48.2983 72.375 48.2983 72.1591V72.1136C48.2983 71.553 48.1449 71.1174 47.8381 70.8068C47.535 70.4962 47.0748 70.3409 46.4574 70.3409C45.8172 70.3409 45.3153 70.4811 44.9517 70.7614C44.5881 71.0417 44.3324 71.3409 44.1847 71.6591L42.9119 71.2045C43.1392 70.6742 43.4422 70.2614 43.821 69.9659C44.2036 69.6667 44.6203 69.4583 45.071 69.3409C45.5256 69.2197 45.9725 69.1591 46.4119 69.1591C46.6922 69.1591 47.0142 69.1932 47.3778 69.2614C47.7453 69.3258 48.0994 69.4602 48.4403 69.6648C48.785 69.8693 49.071 70.178 49.2983 70.5909C49.5256 71.0038 49.6392 71.5568 49.6392 72.25V78H48.2983V76.8182H48.2301C48.1392 77.0076 47.9877 77.2102 47.7756 77.4261C47.5634 77.642 47.2813 77.8258 46.929 77.9773C46.5767 78.1288 46.1468 78.2045 45.6392 78.2045ZM45.8438 77C46.3741 77 46.821 76.8958 47.1847 76.6875C47.5521 76.4792 47.8286 76.2102 48.0142 75.8807C48.2036 75.5511 48.2983 75.2045 48.2983 74.8409V73.6136C48.2415 73.6818 48.1165 73.7443 47.9233 73.8011C47.7339 73.8542 47.5142 73.9015 47.2642 73.9432C47.018 73.9811 46.7775 74.0152 46.5426 74.0455C46.3116 74.072 46.1241 74.0947 45.9801 74.1136C45.6316 74.1591 45.3059 74.233 45.0028 74.3352C44.7036 74.4337 44.4612 74.5833 44.2756 74.7841C44.0938 74.9811 44.0028 75.25 44.0028 75.5909C44.0028 76.0568 44.1752 76.4091 44.5199 76.6477C44.8684 76.8826 45.3097 77 45.8438 77ZM58.9105 69.2727L55.6832 78H54.3196L51.0923 69.2727H52.5469L54.956 76.2273H55.0469L57.456 69.2727H58.9105ZM64.027 78.1818C63.1861 78.1818 62.4607 77.9962 61.8509 77.625C61.2448 77.25 60.777 76.7273 60.4474 76.0568C60.1217 75.3826 59.9588 74.5985 59.9588 73.7045C59.9588 72.8106 60.1217 72.0227 60.4474 71.3409C60.777 70.6553 61.2353 70.1212 61.8224 69.7386C62.4134 69.3523 63.1027 69.1591 63.8906 69.1591C64.3452 69.1591 64.794 69.2348 65.2372 69.3864C65.6804 69.5379 66.0838 69.7841 66.4474 70.125C66.8111 70.4621 67.1009 70.9091 67.3168 71.4659C67.5327 72.0227 67.6406 72.7083 67.6406 73.5227V74.0909H60.9134V72.9318H66.277C66.277 72.4394 66.1785 72 65.9815 71.6136C65.7884 71.2273 65.5118 70.9223 65.152 70.6989C64.7959 70.4754 64.3755 70.3636 63.8906 70.3636C63.3565 70.3636 62.8944 70.4962 62.5043 70.7614C62.1179 71.0227 61.8205 71.3636 61.6122 71.7841C61.4039 72.2045 61.2997 72.6553 61.2997 73.1364V73.9091C61.2997 74.5682 61.4134 75.1269 61.6406 75.5852C61.8717 76.0398 62.1918 76.3864 62.6009 76.625C63.0099 76.8598 63.4853 76.9773 64.027 76.9773C64.3793 76.9773 64.6974 76.928 64.9815 76.8295C65.2694 76.7273 65.5175 76.5758 65.7259 76.375C65.9342 76.1705 66.0952 75.9167 66.2088 75.6136L67.5043 75.9773C67.3679 76.4167 67.1387 76.803 66.8168 77.1364C66.4948 77.4659 66.0971 77.7235 65.6236 77.9091C65.1501 78.0909 64.6179 78.1818 64.027 78.1818ZM75.044 81.2727C74.8168 81.2727 74.6141 81.2538 74.4361 81.2159C74.258 81.1818 74.1349 81.1477 74.0668 81.1136L74.4077 79.9318C74.7334 80.0152 75.0213 80.0455 75.2713 80.0227C75.5213 80 75.7429 79.8883 75.9361 79.6875C76.133 79.4905 76.313 79.1705 76.4759 78.7273L76.7259 78.0455L73.4986 69.2727H74.9531L77.3622 76.2273H77.4531L79.8622 69.2727H81.3168L77.6122 79.2727C77.4455 79.7235 77.2391 80.0966 76.9929 80.392C76.7467 80.6913 76.4607 80.9129 76.1349 81.0568C75.813 81.2008 75.4493 81.2727 75.044 81.2727ZM86.3196 78.1818C85.5317 78.1818 84.8404 77.9943 84.2457 77.6193C83.6548 77.2443 83.1927 76.7197 82.8594 76.0455C82.5298 75.3712 82.3651 74.5833 82.3651 73.6818C82.3651 72.7727 82.5298 71.9792 82.8594 71.3011C83.1927 70.6231 83.6548 70.0966 84.2457 69.7216C84.8404 69.3466 85.5317 69.1591 86.3196 69.1591C87.1075 69.1591 87.7969 69.3466 88.3878 69.7216C88.9825 70.0966 89.4446 70.6231 89.7741 71.3011C90.1075 71.9792 90.2741 72.7727 90.2741 73.6818C90.2741 74.5833 90.1075 75.3712 89.7741 76.0455C89.4446 76.7197 88.9825 77.2443 88.3878 77.6193C87.7969 77.9943 87.1075 78.1818 86.3196 78.1818ZM86.3196 76.9773C86.9181 76.9773 87.4105 76.8239 87.7969 76.517C88.1832 76.2102 88.4692 75.8068 88.6548 75.3068C88.8404 74.8068 88.9332 74.2652 88.9332 73.6818C88.9332 73.0985 88.8404 72.5549 88.6548 72.0511C88.4692 71.5473 88.1832 71.1402 87.7969 70.8295C87.4105 70.5189 86.9181 70.3636 86.3196 70.3636C85.7211 70.3636 85.2287 70.5189 84.8423 70.8295C84.456 71.1402 84.17 71.5473 83.9844 72.0511C83.7988 72.5549 83.706 73.0985 83.706 73.6818C83.706 74.2652 83.7988 74.8068 83.9844 75.3068C84.17 75.8068 84.456 76.2102 84.8423 76.517C85.2287 76.8239 85.7211 76.9773 86.3196 76.9773ZM97.821 74.4318V69.2727H99.1619V78H97.821V76.5227H97.7301C97.5256 76.9659 97.2074 77.3428 96.7756 77.6534C96.3438 77.9602 95.7983 78.1136 95.1392 78.1136C94.5938 78.1136 94.1089 77.9943 93.6847 77.7557C93.2604 77.5133 92.9271 77.1496 92.6847 76.6648C92.4422 76.1761 92.321 75.5606 92.321 74.8182V69.2727H93.6619V74.7273C93.6619 75.3636 93.84 75.8712 94.196 76.25C94.5559 76.6288 95.0142 76.8182 95.571 76.8182C95.9044 76.8182 96.2434 76.733 96.5881 76.5625C96.9366 76.392 97.2282 76.1307 97.4631 75.7784C97.7017 75.4261 97.821 74.9773 97.821 74.4318ZM109.777 78.1818C108.936 78.1818 108.211 77.9962 107.601 77.625C106.995 77.25 106.527 76.7273 106.197 76.0568C105.872 75.3826 105.709 74.5985 105.709 73.7045C105.709 72.8106 105.872 72.0227 106.197 71.3409C106.527 70.6553 106.985 70.1212 107.572 69.7386C108.163 69.3523 108.853 69.1591 109.641 69.1591C110.095 69.1591 110.544 69.2348 110.987 69.3864C111.43 69.5379 111.834 69.7841 112.197 70.125C112.561 70.4621 112.851 70.9091 113.067 71.4659C113.283 72.0227 113.391 72.7083 113.391 73.5227V74.0909H106.663V72.9318H112.027C112.027 72.4394 111.929 72 111.732 71.6136C111.538 71.2273 111.262 70.9223 110.902 70.6989C110.546 70.4754 110.125 70.3636 109.641 70.3636C109.107 70.3636 108.644 70.4962 108.254 70.7614C107.868 71.0227 107.571 71.3636 107.362 71.7841C107.154 72.2045 107.05 72.6553 107.05 73.1364V73.9091C107.05 74.5682 107.163 75.1269 107.391 75.5852C107.622 76.0398 107.942 76.3864 108.351 76.625C108.76 76.8598 109.235 76.9773 109.777 76.9773C110.129 76.9773 110.447 76.928 110.732 76.8295C111.019 76.7273 111.268 76.5758 111.476 76.375C111.684 76.1705 111.845 75.9167 111.959 75.6136L113.254 75.9773C113.118 76.4167 112.889 76.803 112.567 77.1364C112.245 77.4659 111.847 77.7235 111.374 77.9091C110.9 78.0909 110.368 78.1818 109.777 78.1818ZM122.301 69.2727L119.074 78H117.71L114.483 69.2727H115.938L118.347 76.2273H118.438L120.847 69.2727H122.301ZM127.418 78.1818C126.577 78.1818 125.851 77.9962 125.241 77.625C124.635 77.25 124.168 76.7273 123.838 76.0568C123.512 75.3826 123.349 74.5985 123.349 73.7045C123.349 72.8106 123.512 72.0227 123.838 71.3409C124.168 70.6553 124.626 70.1212 125.213 69.7386C125.804 69.3523 126.493 69.1591 127.281 69.1591C127.736 69.1591 128.185 69.2348 128.628 69.3864C129.071 69.5379 129.474 69.7841 129.838 70.125C130.202 70.4621 130.491 70.9091 130.707 71.4659C130.923 72.0227 131.031 72.7083 131.031 73.5227V74.0909H124.304V72.9318H129.668C129.668 72.4394 129.569 72 129.372 71.6136C129.179 71.2273 128.902 70.9223 128.543 70.6989C128.187 70.4754 127.766 70.3636 127.281 70.3636C126.747 70.3636 126.285 70.4962 125.895 70.7614C125.509 71.0227 125.211 71.3636 125.003 71.7841C124.795 72.2045 124.69 72.6553 124.69 73.1364V73.9091C124.69 74.5682 124.804 75.1269 125.031 75.5852C125.262 76.0398 125.582 76.3864 125.991 76.625C126.401 76.8598 126.876 76.9773 127.418 76.9773C127.77 76.9773 128.088 76.928 128.372 76.8295C128.66 76.7273 128.908 76.5758 129.116 76.375C129.325 76.1705 129.486 75.9167 129.599 75.6136L130.895 75.9773C130.759 76.4167 130.529 76.803 130.207 77.1364C129.885 77.4659 129.488 77.7235 129.014 77.9091C128.541 78.0909 128.009 78.1818 127.418 78.1818ZM133.071 78V69.2727H134.366V70.5909H134.457C134.616 70.1591 134.904 69.8087 135.321 69.5398C135.738 69.2708 136.207 69.1364 136.73 69.1364C136.829 69.1364 136.952 69.1383 137.099 69.142C137.247 69.1458 137.359 69.1515 137.435 69.1591V70.5227C137.389 70.5114 137.285 70.4943 137.122 70.4716C136.963 70.4451 136.795 70.4318 136.616 70.4318C136.192 70.4318 135.813 70.5208 135.48 70.6989C135.151 70.8731 134.889 71.1155 134.696 71.4261C134.507 71.733 134.412 72.0833 134.412 72.4773V78H133.071ZM147.411 69.2727V70.4091H142.706V69.2727H147.411ZM144.115 78V68.0682C144.115 67.5682 144.232 67.1515 144.467 66.8182C144.702 66.4848 145.007 66.2348 145.382 66.0682C145.757 65.9015 146.153 65.8182 146.57 65.8182C146.899 65.8182 147.168 65.8447 147.376 65.8977C147.585 65.9508 147.74 66 147.842 66.0455L147.456 67.2045C147.388 67.1818 147.293 67.1534 147.172 67.1193C147.054 67.0852 146.899 67.0682 146.706 67.0682C146.263 67.0682 145.943 67.1799 145.746 67.4034C145.553 67.6269 145.456 67.9545 145.456 68.3864V78H144.115ZM149.29 78V69.2727H150.631V78H149.29ZM149.972 67.8182C149.71 67.8182 149.485 67.7292 149.295 67.5511C149.11 67.3731 149.017 67.1591 149.017 66.9091C149.017 66.6591 149.11 66.4451 149.295 66.267C149.485 66.089 149.71 66 149.972 66C150.233 66 150.456 66.089 150.642 66.267C150.831 66.4451 150.926 66.6591 150.926 66.9091C150.926 67.1591 150.831 67.3731 150.642 67.5511C150.456 67.7292 150.233 67.8182 149.972 67.8182ZM154.428 72.75V78H153.087V69.2727H154.382V70.6364H154.496C154.7 70.1932 155.011 69.8371 155.428 69.5682C155.844 69.2955 156.382 69.1591 157.041 69.1591C157.632 69.1591 158.149 69.2803 158.592 69.5227C159.036 69.7614 159.38 70.125 159.626 70.6136C159.873 71.0985 159.996 71.7121 159.996 72.4545V78H158.655V72.5455C158.655 71.8598 158.477 71.3258 158.121 70.9432C157.765 70.5568 157.276 70.3636 156.655 70.3636C156.227 70.3636 155.844 70.4564 155.507 70.642C155.174 70.8277 154.911 71.0985 154.717 71.4545C154.524 71.8106 154.428 72.2424 154.428 72.75ZM165.014 78.2045C164.461 78.2045 163.959 78.1004 163.509 77.892C163.058 77.6799 162.7 77.375 162.435 76.9773C162.17 76.5758 162.037 76.0909 162.037 75.5227C162.037 75.0227 162.135 74.6174 162.332 74.3068C162.529 73.9924 162.793 73.7462 163.122 73.5682C163.452 73.3902 163.815 73.2576 164.213 73.1705C164.615 73.0795 165.018 73.0076 165.423 72.9545C165.954 72.8864 166.384 72.8352 166.713 72.8011C167.046 72.7633 167.289 72.7008 167.44 72.6136C167.596 72.5265 167.673 72.375 167.673 72.1591V72.1136C167.673 71.553 167.52 71.1174 167.213 70.8068C166.91 70.4962 166.45 70.3409 165.832 70.3409C165.192 70.3409 164.69 70.4811 164.327 70.7614C163.963 71.0417 163.707 71.3409 163.56 71.6591L162.287 71.2045C162.514 70.6742 162.817 70.2614 163.196 69.9659C163.579 69.6667 163.995 69.4583 164.446 69.3409C164.901 69.2197 165.348 69.1591 165.787 69.1591C166.067 69.1591 166.389 69.1932 166.753 69.2614C167.12 69.3258 167.474 69.4602 167.815 69.6648C168.16 69.8693 168.446 70.178 168.673 70.5909C168.901 71.0038 169.014 71.5568 169.014 72.25V78H167.673V76.8182H167.605C167.514 77.0076 167.363 77.2102 167.151 77.4261C166.938 77.642 166.656 77.8258 166.304 77.9773C165.952 78.1288 165.522 78.2045 165.014 78.2045ZM165.219 77C165.749 77 166.196 76.8958 166.56 76.6875C166.927 76.4792 167.204 76.2102 167.389 75.8807C167.579 75.5511 167.673 75.2045 167.673 74.8409V73.6136C167.616 73.6818 167.491 73.7443 167.298 73.8011C167.109 73.8542 166.889 73.9015 166.639 73.9432C166.393 73.9811 166.152 74.0152 165.918 74.0455C165.687 74.072 165.499 74.0947 165.355 74.1136C165.007 74.1591 164.681 74.233 164.378 74.3352C164.079 74.4337 163.836 74.5833 163.651 74.7841C163.469 74.9811 163.378 75.25 163.378 75.5909C163.378 76.0568 163.55 76.4091 163.895 76.6477C164.243 76.8826 164.685 77 165.219 77ZM172.803 66.3636V78H171.462V66.3636H172.803ZM176.599 66.3636V78H175.259V66.3636H176.599ZM179.919 81.2727C179.692 81.2727 179.489 81.2538 179.311 81.2159C179.133 81.1818 179.01 81.1477 178.942 81.1136L179.283 79.9318C179.608 80.0152 179.896 80.0455 180.146 80.0227C180.396 80 180.618 79.8883 180.811 79.6875C181.008 79.4905 181.188 79.1705 181.351 78.7273L181.601 78.0455L178.374 69.2727H179.828L182.237 76.2273H182.328L184.737 69.2727H186.192L182.487 79.2727C182.321 79.7235 182.114 80.0966 181.868 80.392C181.622 80.6913 181.336 80.9129 181.01 81.0568C180.688 81.2008 180.324 81.2727 179.919 81.2727ZM192.462 69.2727H193.803V78.6364C193.803 79.1742 193.71 79.6402 193.524 80.0341C193.342 80.428 193.066 80.733 192.695 80.9489C192.327 81.1648 191.863 81.2727 191.303 81.2727C191.257 81.2727 191.212 81.2727 191.166 81.2727C191.121 81.2727 191.075 81.2727 191.03 81.2727V80.0227C191.075 80.0227 191.117 80.0227 191.155 80.0227C191.193 80.0227 191.234 80.0227 191.28 80.0227C191.689 80.0227 191.988 79.9015 192.178 79.6591C192.367 79.4205 192.462 79.0795 192.462 78.6364V69.2727ZM193.121 67.8182C192.859 67.8182 192.634 67.7292 192.445 67.5511C192.259 67.3731 192.166 67.1591 192.166 66.9091C192.166 66.6591 192.259 66.4451 192.445 66.267C192.634 66.089 192.859 66 193.121 66C193.382 66 193.606 66.089 193.791 66.267C193.981 66.4451 194.075 66.6591 194.075 66.9091C194.075 67.1591 193.981 67.3731 193.791 67.5511C193.606 67.7292 193.382 67.8182 193.121 67.8182ZM201.759 74.4318V69.2727H203.099V78H201.759V76.5227H201.668C201.463 76.9659 201.145 77.3428 200.713 77.6534C200.281 77.9602 199.736 78.1136 199.077 78.1136C198.531 78.1136 198.046 77.9943 197.622 77.7557C197.198 77.5133 196.865 77.1496 196.622 76.6648C196.38 76.1761 196.259 75.5606 196.259 74.8182V69.2727H197.599V74.7273C197.599 75.3636 197.777 75.8712 198.134 76.25C198.493 76.6288 198.952 76.8182 199.509 76.8182C199.842 76.8182 200.181 76.733 200.526 76.5625C200.874 76.392 201.166 76.1307 201.401 75.7784C201.639 75.4261 201.759 74.9773 201.759 74.4318ZM211.737 71.2273L210.533 71.5682C210.457 71.3674 210.345 71.1723 210.197 70.983C210.054 70.7898 209.857 70.6307 209.607 70.5057C209.357 70.3807 209.036 70.3182 208.646 70.3182C208.112 70.3182 207.667 70.4413 207.311 70.6875C206.959 70.9299 206.783 71.2386 206.783 71.6136C206.783 71.947 206.904 72.2102 207.146 72.4034C207.389 72.5966 207.768 72.7576 208.283 72.8864L209.578 73.2045C210.358 73.3939 210.94 73.6837 211.322 74.0739C211.705 74.4602 211.896 74.9583 211.896 75.5682C211.896 76.0682 211.752 76.5152 211.464 76.9091C211.18 77.303 210.783 77.6136 210.271 77.8409C209.76 78.0682 209.165 78.1818 208.487 78.1818C207.597 78.1818 206.86 77.9886 206.277 77.6023C205.694 77.2159 205.324 76.6515 205.169 75.9091L206.442 75.5909C206.563 76.0606 206.792 76.4129 207.129 76.6477C207.47 76.8826 207.915 77 208.464 77C209.089 77 209.586 76.8674 209.953 76.6023C210.324 76.3333 210.51 76.0114 210.51 75.6364C210.51 75.3333 210.404 75.0795 210.192 74.875C209.98 74.6667 209.654 74.5114 209.214 74.4091L207.76 74.0682C206.961 73.8788 206.374 73.5852 205.999 73.1875C205.627 72.786 205.442 72.2841 205.442 71.6818C205.442 71.1894 205.58 70.7538 205.857 70.375C206.137 69.9962 206.518 69.6989 206.999 69.483C207.483 69.267 208.033 69.1591 208.646 69.1591C209.51 69.1591 210.188 69.3485 210.68 69.7273C211.177 70.1061 211.529 70.6061 211.737 71.2273ZM217.71 69.2727V70.4091H213.188V69.2727H217.71ZM214.506 67.1818H215.847V75.5C215.847 75.8788 215.902 76.1629 216.011 76.3523C216.125 76.5379 216.269 76.6629 216.443 76.7273C216.621 76.7879 216.809 76.8182 217.006 76.8182C217.153 76.8182 217.275 76.8106 217.369 76.7955C217.464 76.7765 217.54 76.7614 217.597 76.75L217.869 77.9545C217.778 77.9886 217.652 78.0227 217.489 78.0568C217.326 78.0947 217.119 78.1136 216.869 78.1136C216.491 78.1136 216.119 78.0322 215.756 77.8693C215.396 77.7064 215.097 77.4583 214.858 77.125C214.623 76.7917 214.506 76.3712 214.506 75.8636V67.1818ZM226.205 78L223.545 69.2727H224.955L226.841 75.9545H226.932L228.795 69.2727H230.227L232.068 75.9318H232.159L234.045 69.2727H235.455L232.795 78H231.477L229.568 71.2955H229.432L227.523 78H226.205ZM237.227 78V69.2727H238.523V70.5909H238.614C238.773 70.1591 239.061 69.8087 239.477 69.5398C239.894 69.2708 240.364 69.1364 240.886 69.1364C240.985 69.1364 241.108 69.1383 241.256 69.142C241.403 69.1458 241.515 69.1515 241.591 69.1591V70.5227C241.545 70.5114 241.441 70.4943 241.278 70.4716C241.119 70.4451 240.951 70.4318 240.773 70.4318C240.348 70.4318 239.97 70.5208 239.636 70.6989C239.307 70.8731 239.045 71.1155 238.852 71.4261C238.663 71.733 238.568 72.0833 238.568 72.4773V78H237.227ZM243.18 78V69.2727H244.521V78H243.18ZM243.862 67.8182C243.601 67.8182 243.375 67.7292 243.186 67.5511C243 67.3731 242.908 67.1591 242.908 66.9091C242.908 66.6591 243 66.4451 243.186 66.267C243.375 66.089 243.601 66 243.862 66C244.124 66 244.347 66.089 244.533 66.267C244.722 66.4451 244.817 66.6591 244.817 66.9091C244.817 67.1591 244.722 67.3731 244.533 67.5511C244.347 67.7292 244.124 67.8182 243.862 67.8182ZM250.773 69.2727V70.4091H246.25V69.2727H250.773ZM247.568 67.1818H248.909V75.5C248.909 75.8788 248.964 76.1629 249.074 76.3523C249.188 76.5379 249.331 76.6629 249.506 76.7273C249.684 76.7879 249.871 76.8182 250.068 76.8182C250.216 76.8182 250.337 76.8106 250.432 76.7955C250.527 76.7765 250.602 76.7614 250.659 76.75L250.932 77.9545C250.841 77.9886 250.714 78.0227 250.551 78.0568C250.388 78.0947 250.182 78.1136 249.932 78.1136C249.553 78.1136 249.182 78.0322 248.818 77.8693C248.458 77.7064 248.159 77.4583 247.92 77.125C247.686 76.7917 247.568 76.3712 247.568 75.8636V67.1818ZM256.355 78.1818C255.514 78.1818 254.789 77.9962 254.179 77.625C253.573 77.25 253.105 76.7273 252.776 76.0568C252.45 75.3826 252.287 74.5985 252.287 73.7045C252.287 72.8106 252.45 72.0227 252.776 71.3409C253.105 70.6553 253.563 70.1212 254.151 69.7386C254.741 69.3523 255.431 69.1591 256.219 69.1591C256.673 69.1591 257.122 69.2348 257.565 69.3864C258.009 69.5379 258.412 69.7841 258.776 70.125C259.139 70.4621 259.429 70.9091 259.645 71.4659C259.861 72.0227 259.969 72.7083 259.969 73.5227V74.0909H253.241V72.9318H258.605C258.605 72.4394 258.507 72 258.31 71.6136C258.116 71.2273 257.84 70.9223 257.48 70.6989C257.124 70.4754 256.704 70.3636 256.219 70.3636C255.685 70.3636 255.223 70.4962 254.832 70.7614C254.446 71.0227 254.149 71.3636 253.94 71.7841C253.732 72.2045 253.628 72.6553 253.628 73.1364V73.9091C253.628 74.5682 253.741 75.1269 253.969 75.5852C254.2 76.0398 254.52 76.3864 254.929 76.625C255.338 76.8598 255.813 76.9773 256.355 76.9773C256.707 76.9773 257.026 76.928 257.31 76.8295C257.598 76.7273 257.846 76.5758 258.054 76.375C258.262 76.1705 258.423 75.9167 258.537 75.6136L259.832 75.9773C259.696 76.4167 259.467 76.803 259.145 77.1364C258.823 77.4659 258.425 77.7235 257.952 77.9091C257.478 78.0909 256.946 78.1818 256.355 78.1818ZM269.804 78.1818C269.077 78.1818 268.435 77.9981 267.878 77.6307C267.321 77.2595 266.885 76.7367 266.571 76.0625C266.257 75.3845 266.099 74.5833 266.099 73.6591C266.099 72.7424 266.257 71.947 266.571 71.2727C266.885 70.5985 267.323 70.0777 267.884 69.7102C268.444 69.3428 269.092 69.1591 269.827 69.1591C270.395 69.1591 270.844 69.2538 271.173 69.4432C271.507 69.6288 271.76 69.8409 271.935 70.0795C272.113 70.3144 272.251 70.5076 272.349 70.6591H272.463V66.3636H273.804V78H272.509V76.6591H272.349C272.251 76.8182 272.111 77.0189 271.929 77.2614C271.747 77.5 271.488 77.714 271.151 77.9034C270.813 78.089 270.365 78.1818 269.804 78.1818ZM269.986 76.9773C270.524 76.9773 270.978 76.8371 271.349 76.5568C271.721 76.2727 272.003 75.8807 272.196 75.3807C272.389 74.8769 272.486 74.2955 272.486 73.6364C272.486 72.9848 272.391 72.4148 272.202 71.9261C272.012 71.4337 271.732 71.0511 271.361 70.7784C270.99 70.5019 270.531 70.3636 269.986 70.3636C269.418 70.3636 268.944 70.5095 268.565 70.8011C268.19 71.089 267.908 71.4811 267.719 71.9773C267.533 72.4697 267.44 73.0227 267.44 73.6364C267.44 74.2576 267.535 74.822 267.724 75.3295C267.918 75.8333 268.202 76.2348 268.577 76.5341C268.955 76.8295 269.425 76.9773 269.986 76.9773ZM281.946 74.4318V69.2727H283.287V78H281.946V76.5227H281.855C281.651 76.9659 281.332 77.3428 280.901 77.6534C280.469 77.9602 279.923 78.1136 279.264 78.1136C278.719 78.1136 278.234 77.9943 277.81 77.7557C277.385 77.5133 277.052 77.1496 276.81 76.6648C276.567 76.1761 276.446 75.5606 276.446 74.8182V69.2727H277.787V74.7273C277.787 75.3636 277.965 75.8712 278.321 76.25C278.681 76.6288 279.139 76.8182 279.696 76.8182C280.029 76.8182 280.368 76.733 280.713 76.5625C281.062 76.392 281.353 76.1307 281.588 75.7784C281.827 75.4261 281.946 74.9773 281.946 74.4318ZM285.743 78V69.2727H287.038V70.6364H287.152C287.334 70.1705 287.627 69.8087 288.033 69.5511C288.438 69.2898 288.925 69.1591 289.493 69.1591C290.069 69.1591 290.548 69.2898 290.93 69.5511C291.317 69.8087 291.618 70.1705 291.834 70.6364H291.925C292.148 70.1856 292.483 69.8277 292.93 69.5625C293.377 69.2936 293.913 69.1591 294.538 69.1591C295.319 69.1591 295.957 69.4034 296.453 69.892C296.949 70.3769 297.197 71.1326 297.197 72.1591V78H295.857V72.1591C295.857 71.5152 295.68 71.0549 295.328 70.7784C294.976 70.5019 294.561 70.3636 294.084 70.3636C293.47 70.3636 292.995 70.5492 292.658 70.9205C292.321 71.2879 292.152 71.7538 292.152 72.3182V78H290.788V72.0227C290.788 71.5265 290.627 71.1269 290.305 70.8239C289.983 70.517 289.569 70.3636 289.061 70.3636C288.713 70.3636 288.387 70.4564 288.084 70.642C287.785 70.8277 287.542 71.0852 287.357 71.4148C287.175 71.7405 287.084 72.1174 287.084 72.5455V78H285.743ZM299.649 78V69.2727H300.945V70.6364H301.058C301.24 70.1705 301.534 69.8087 301.939 69.5511C302.344 69.2898 302.831 69.1591 303.399 69.1591C303.975 69.1591 304.454 69.2898 304.837 69.5511C305.223 69.8087 305.524 70.1705 305.74 70.6364H305.831C306.054 70.1856 306.39 69.8277 306.837 69.5625C307.284 69.2936 307.82 69.1591 308.445 69.1591C309.225 69.1591 309.863 69.4034 310.359 69.892C310.856 70.3769 311.104 71.1326 311.104 72.1591V78H309.763V72.1591C309.763 71.5152 309.587 71.0549 309.234 70.7784C308.882 70.5019 308.467 70.3636 307.99 70.3636C307.376 70.3636 306.901 70.5492 306.564 70.9205C306.227 71.2879 306.058 71.7538 306.058 72.3182V78H304.695V72.0227C304.695 71.5265 304.534 71.1269 304.212 70.8239C303.89 70.517 303.475 70.3636 302.967 70.3636C302.619 70.3636 302.293 70.4564 301.99 70.642C301.691 70.8277 301.448 71.0852 301.263 71.4148C301.081 71.7405 300.99 72.1174 300.99 72.5455V78H299.649ZM314.107 81.2727C313.879 81.2727 313.677 81.2538 313.499 81.2159C313.321 81.1818 313.197 81.1477 313.129 81.1136L313.47 79.9318C313.796 80.0152 314.084 80.0455 314.334 80.0227C314.584 80 314.805 79.8883 314.999 79.6875C315.196 79.4905 315.375 79.1705 315.538 78.7273L315.788 78.0455L312.561 69.2727H314.016L316.425 76.2273H316.516L318.925 69.2727H320.379L316.675 79.2727C316.508 79.7235 316.302 80.0966 316.055 80.392C315.809 80.6913 315.523 80.9129 315.197 81.0568C314.875 81.2008 314.512 81.2727 314.107 81.2727ZM326.649 78V69.2727H327.99V78H326.649ZM327.331 67.8182C327.07 67.8182 326.844 67.7292 326.655 67.5511C326.469 67.3731 326.376 67.1591 326.376 66.9091C326.376 66.6591 326.469 66.4451 326.655 66.267C326.844 66.089 327.07 66 327.331 66C327.592 66 327.816 66.089 328.001 66.267C328.191 66.4451 328.286 66.6591 328.286 66.9091C328.286 67.1591 328.191 67.3731 328.001 67.5511C327.816 67.7292 327.592 67.8182 327.331 67.8182ZM331.787 72.75V78H330.446V69.2727H331.741V70.6364H331.855C332.06 70.1932 332.37 69.8371 332.787 69.5682C333.204 69.2955 333.741 69.1591 334.401 69.1591C334.991 69.1591 335.509 69.2803 335.952 69.5227C336.395 69.7614 336.74 70.125 336.986 70.6136C337.232 71.0985 337.355 71.7121 337.355 72.4545V78H336.014V72.5455C336.014 71.8598 335.836 71.3258 335.48 70.9432C335.124 70.5568 334.635 70.3636 334.014 70.3636C333.586 70.3636 333.204 70.4564 332.866 70.642C332.533 70.8277 332.27 71.0985 332.077 71.4545C331.884 71.8106 331.787 72.2424 331.787 72.75ZM343.692 69.2727V70.4091H338.987V69.2727H343.692ZM340.396 78V68.0682C340.396 67.5682 340.514 67.1515 340.749 66.8182C340.983 66.4848 341.288 66.2348 341.663 66.0682C342.038 65.9015 342.434 65.8182 342.851 65.8182C343.18 65.8182 343.449 65.8447 343.658 65.8977C343.866 65.9508 344.021 66 344.124 66.0455L343.737 67.2045C343.669 67.1818 343.574 67.1534 343.453 67.1193C343.336 67.0852 343.18 67.0682 342.987 67.0682C342.544 67.0682 342.224 67.1799 342.027 67.4034C341.834 67.6269 341.737 67.9545 341.737 68.3864V78H340.396ZM348.757 78.1818C347.969 78.1818 347.278 77.9943 346.683 77.6193C346.092 77.2443 345.63 76.7197 345.297 76.0455C344.967 75.3712 344.803 74.5833 344.803 73.6818C344.803 72.7727 344.967 71.9792 345.297 71.3011C345.63 70.6231 346.092 70.0966 346.683 69.7216C347.278 69.3466 347.969 69.1591 348.757 69.1591C349.545 69.1591 350.234 69.3466 350.825 69.7216C351.42 70.0966 351.882 70.6231 352.212 71.3011C352.545 71.9792 352.712 72.7727 352.712 73.6818C352.712 74.5833 352.545 75.3712 352.212 76.0455C351.882 76.7197 351.42 77.2443 350.825 77.6193C350.234 77.9943 349.545 78.1818 348.757 78.1818ZM348.757 76.9773C349.356 76.9773 349.848 76.8239 350.234 76.517C350.621 76.2102 350.907 75.8068 351.092 75.3068C351.278 74.8068 351.371 74.2652 351.371 73.6818C351.371 73.0985 351.278 72.5549 351.092 72.0511C350.907 71.5473 350.621 71.1402 350.234 70.8295C349.848 70.5189 349.356 70.3636 348.757 70.3636C348.159 70.3636 347.666 70.5189 347.28 70.8295C346.893 71.1402 346.607 71.5473 346.422 72.0511C346.236 72.5549 346.143 73.0985 346.143 73.6818C346.143 74.2652 346.236 74.8068 346.422 75.3068C346.607 75.8068 346.893 76.2102 347.28 76.517C347.666 76.8239 348.159 76.9773 348.757 76.9773Z" fill="white"/>
<path d="M41.2074 40.3438C41.1278 39.5994 40.7926 39.0199 40.2017 38.6051C39.6165 38.1903 38.8551 37.983 37.9176 37.983C37.2585 37.983 36.6932 38.0824 36.2216 38.2812C35.75 38.4801 35.3892 38.75 35.1392 39.0909C34.8892 39.4318 34.7614 39.821 34.7557 40.2585C34.7557 40.6222 34.8381 40.9375 35.0028 41.2045C35.1733 41.4716 35.4034 41.6989 35.6932 41.8864C35.983 42.0682 36.304 42.2216 36.6562 42.3466C37.0085 42.4716 37.3636 42.5767 37.7216 42.6619L39.358 43.071C40.017 43.2244 40.6506 43.4318 41.2585 43.6932C41.8722 43.9545 42.4205 44.2841 42.9034 44.6818C43.392 45.0795 43.7784 45.5597 44.0625 46.1222C44.3466 46.6847 44.4886 47.3437 44.4886 48.0994C44.4886 49.1222 44.2273 50.0227 43.7045 50.8011C43.1818 51.5739 42.4261 52.179 41.4375 52.6165C40.4545 53.0483 39.2642 53.2642 37.8665 53.2642C36.5085 53.2642 35.3295 53.054 34.3295 52.6335C33.3352 52.2131 32.5568 51.5994 31.9943 50.7926C31.4375 49.9858 31.1364 49.0028 31.0909 47.8438H34.2017C34.2472 48.4517 34.4347 48.9574 34.7642 49.3608C35.0938 49.7642 35.5227 50.0653 36.0511 50.2642C36.5852 50.4631 37.1818 50.5625 37.8409 50.5625C38.5284 50.5625 39.1307 50.4602 39.6477 50.2557C40.1705 50.0455 40.5795 49.7557 40.875 49.3864C41.1705 49.0114 41.321 48.5739 41.3267 48.0739C41.321 47.6193 41.1875 47.2443 40.9261 46.9489C40.6648 46.6477 40.2983 46.3977 39.8267 46.1989C39.3608 45.9943 38.8153 45.8125 38.1903 45.6534L36.2045 45.142C34.767 44.7727 33.6307 44.2131 32.7955 43.4631C31.9659 42.7074 31.5511 41.7045 31.5511 40.4545C31.5511 39.4261 31.8295 38.5256 32.3864 37.7528C32.9489 36.9801 33.7131 36.3807 34.679 35.9545C35.6449 35.5227 36.7386 35.3068 37.9602 35.3068C39.1989 35.3068 40.2841 35.5227 41.2159 35.9545C42.1534 36.3807 42.8892 36.9744 43.4233 37.7358C43.9574 38.4915 44.233 39.3608 44.25 40.3438H41.2074ZM55.3149 47.4943V39.9091H58.4001V53H55.4087V50.6733H55.2723C54.9768 51.4062 54.4911 52.0057 53.8149 52.4716C53.1445 52.9375 52.3178 53.1705 51.3348 53.1705C50.4768 53.1705 49.7183 52.9801 49.0592 52.5994C48.4058 52.2131 47.8945 51.6534 47.5251 50.9205C47.1558 50.1818 46.9712 49.2898 46.9712 48.2443V39.9091H50.0564V47.767C50.0564 48.5966 50.2837 49.2557 50.7382 49.7443C51.1928 50.233 51.7893 50.4773 52.528 50.4773C52.9825 50.4773 53.4229 50.3665 53.849 50.1449C54.2751 49.9233 54.6246 49.5938 54.8973 49.1562C55.1757 48.7131 55.3149 48.1591 55.3149 47.4943ZM61.3727 57.9091V39.9091H64.4068V42.0739H64.5858C64.7449 41.7557 64.9693 41.4176 65.2591 41.0597C65.5489 40.696 65.9409 40.3864 66.4352 40.1307C66.9295 39.8693 67.5602 39.7386 68.3273 39.7386C69.3386 39.7386 70.2506 39.9972 71.0631 40.5142C71.8813 41.0256 72.529 41.7841 73.0063 42.7898C73.4892 43.7898 73.7307 45.017 73.7307 46.4716C73.7307 47.9091 73.4949 49.1307 73.0233 50.1364C72.5517 51.142 71.9097 51.9091 71.0972 52.4375C70.2847 52.9659 69.3642 53.2301 68.3358 53.2301C67.5858 53.2301 66.9636 53.1051 66.4693 52.8551C65.975 52.6051 65.5773 52.304 65.2761 51.9517C64.9807 51.5937 64.7506 51.2557 64.5858 50.9375H64.458V57.9091H61.3727ZM64.3983 46.4545C64.3983 47.3011 64.5176 48.0426 64.7563 48.679C65.0006 49.3153 65.35 49.8125 65.8045 50.1705C66.2648 50.5227 66.8216 50.6989 67.475 50.6989C68.1568 50.6989 68.7278 50.517 69.1881 50.1534C69.6483 49.7841 69.9949 49.2812 70.2278 48.6449C70.4665 48.0028 70.5858 47.2727 70.5858 46.4545C70.5858 45.642 70.4693 44.9205 70.2364 44.2898C70.0034 43.6591 69.6568 43.1648 69.1966 42.8068C68.7364 42.4489 68.1625 42.2699 67.475 42.2699C66.8159 42.2699 66.2563 42.4432 65.796 42.7898C65.3358 43.1364 64.9864 43.6222 64.7477 44.2472C64.5148 44.8722 64.3983 45.608 64.3983 46.4545ZM81.9682 53.2557C80.6557 53.2557 79.5222 52.983 78.5676 52.4375C77.6188 51.8864 76.8886 51.108 76.3773 50.1023C75.8659 49.0909 75.6102 47.9006 75.6102 46.5312C75.6102 45.1847 75.8659 44.0028 76.3773 42.9858C76.8943 41.9631 77.6159 41.1676 78.542 40.5994C79.4682 40.0256 80.5563 39.7386 81.8063 39.7386C82.6131 39.7386 83.3744 39.8693 84.0903 40.1307C84.8119 40.3864 85.4483 40.7841 85.9994 41.3239C86.5563 41.8636 86.9938 42.5511 87.3119 43.3864C87.6301 44.2159 87.7892 45.2045 87.7892 46.3523V47.2983H77.0591V45.2188H84.8318C84.8261 44.6278 84.6983 44.1023 84.4483 43.642C84.1983 43.1761 83.8489 42.8097 83.4 42.5426C82.9568 42.2756 82.4398 42.142 81.8489 42.142C81.2182 42.142 80.6642 42.2955 80.1869 42.6023C79.7097 42.9034 79.3375 43.3011 79.0705 43.7955C78.8091 44.2841 78.6756 44.821 78.6699 45.4062V47.2216C78.6699 47.983 78.8091 48.6364 79.0875 49.1818C79.3659 49.7216 79.7551 50.1364 80.2551 50.4261C80.7551 50.7102 81.3403 50.8523 82.0108 50.8523C82.4597 50.8523 82.8659 50.7898 83.2295 50.6648C83.5932 50.5341 83.9085 50.3438 84.1756 50.0938C84.4426 49.8438 84.6443 49.5341 84.7807 49.1648L87.6614 49.4886C87.4795 50.25 87.133 50.9148 86.6216 51.483C86.1159 52.0455 85.4682 52.483 84.6784 52.7955C83.8886 53.1023 82.9852 53.2557 81.9682 53.2557ZM90.1993 53V39.9091H93.1908V42.0909H93.3271C93.5658 41.3352 93.9749 40.7528 94.5544 40.3438C95.1396 39.929 95.8072 39.7216 96.5572 39.7216C96.7277 39.7216 96.918 39.7301 97.1283 39.7472C97.3442 39.7585 97.5232 39.7784 97.6652 39.8068V42.6449C97.5345 42.5994 97.3271 42.5597 97.043 42.5256C96.7646 42.4858 96.4947 42.4659 96.2334 42.4659C95.6709 42.4659 95.1652 42.5881 94.7163 42.8324C94.2732 43.071 93.9237 43.4034 93.668 43.8295C93.4124 44.2557 93.2845 44.7472 93.2845 45.304V53H90.1993ZM110.126 53.2301C109.098 53.2301 108.177 52.9659 107.365 52.4375C106.552 51.9091 105.91 51.142 105.438 50.1364C104.967 49.1307 104.731 47.9091 104.731 46.4716C104.731 45.017 104.97 43.7898 105.447 42.7898C105.93 41.7841 106.581 41.0256 107.399 40.5142C108.217 39.9972 109.129 39.7386 110.135 39.7386C110.902 39.7386 111.532 39.8693 112.027 40.1307C112.521 40.3864 112.913 40.696 113.203 41.0597C113.492 41.4176 113.717 41.7557 113.876 42.0739H114.004V35.5455H117.098V53H114.063V50.9375H113.876C113.717 51.2557 113.487 51.5937 113.186 51.9517C112.885 52.304 112.487 52.6051 111.992 52.8551C111.498 53.1051 110.876 53.2301 110.126 53.2301ZM110.987 50.6989C111.64 50.6989 112.197 50.5227 112.657 50.1705C113.117 49.8125 113.467 49.3153 113.706 48.679C113.944 48.0426 114.063 47.3011 114.063 46.4545C114.063 45.608 113.944 44.8722 113.706 44.2472C113.473 43.6222 113.126 43.1364 112.666 42.7898C112.211 42.4432 111.652 42.2699 110.987 42.2699C110.299 42.2699 109.725 42.4489 109.265 42.8068C108.805 43.1648 108.458 43.6591 108.225 44.2898C107.992 44.9205 107.876 45.642 107.876 46.4545C107.876 47.2727 107.992 48.0028 108.225 48.6449C108.464 49.2812 108.813 49.7841 109.274 50.1534C109.74 50.517 110.311 50.6989 110.987 50.6989ZM120.185 53V39.9091H123.27V53H120.185ZM121.736 38.0511C121.248 38.0511 120.827 37.8892 120.475 37.5653C120.123 37.2358 119.947 36.8409 119.947 36.3807C119.947 35.9148 120.123 35.5199 120.475 35.196C120.827 34.8665 121.248 34.7017 121.736 34.7017C122.231 34.7017 122.651 34.8665 122.998 35.196C123.35 35.5199 123.526 35.9148 123.526 36.3807C123.526 36.8409 123.35 37.2358 122.998 37.5653C122.651 37.8892 122.231 38.0511 121.736 38.0511ZM136.59 43.3693L133.777 43.6761C133.698 43.392 133.558 43.125 133.36 42.875C133.166 42.625 132.905 42.4233 132.575 42.2699C132.246 42.1165 131.842 42.0398 131.365 42.0398C130.723 42.0398 130.183 42.179 129.746 42.4574C129.314 42.7358 129.101 43.0966 129.107 43.5398C129.101 43.9205 129.24 44.2301 129.524 44.4688C129.814 44.7074 130.291 44.9034 130.956 45.0568L133.189 45.5341C134.428 45.8011 135.348 46.2244 135.95 46.804C136.558 47.3835 136.865 48.142 136.871 49.0795C136.865 49.9034 136.624 50.6307 136.146 51.2614C135.675 51.8864 135.019 52.375 134.178 52.7273C133.337 53.0795 132.371 53.2557 131.28 53.2557C129.678 53.2557 128.388 52.9205 127.411 52.25C126.433 51.5739 125.851 50.6335 125.663 49.429L128.672 49.1392C128.808 49.7301 129.098 50.1761 129.541 50.4773C129.985 50.7784 130.561 50.929 131.271 50.929C132.004 50.929 132.592 50.7784 133.036 50.4773C133.485 50.1761 133.709 49.804 133.709 49.3608C133.709 48.9858 133.564 48.6761 133.274 48.4318C132.99 48.1875 132.547 48 131.945 47.8693L129.712 47.4006C128.456 47.1392 127.527 46.6989 126.925 46.0795C126.323 45.4545 126.024 44.6648 126.03 43.7102C126.024 42.9034 126.243 42.2045 126.686 41.6136C127.135 41.017 127.757 40.5568 128.553 40.233C129.354 39.9034 130.277 39.7386 131.323 39.7386C132.857 39.7386 134.064 40.0653 134.945 40.7188C135.831 41.3722 136.379 42.2557 136.59 43.3693ZM144.925 53.2557C143.618 53.2557 142.496 52.9688 141.559 52.3949C140.627 51.821 139.908 51.0284 139.402 50.017C138.902 49 138.652 47.8295 138.652 46.5057C138.652 45.1761 138.908 44.0028 139.419 42.9858C139.931 41.9631 140.652 41.1676 141.584 40.5994C142.522 40.0256 143.63 39.7386 144.908 39.7386C145.971 39.7386 146.911 39.9347 147.729 40.3267C148.553 40.7131 149.209 41.2614 149.698 41.9716C150.187 42.6761 150.465 43.5 150.533 44.4432H147.584C147.465 43.8125 147.181 43.2869 146.732 42.8665C146.289 42.4403 145.695 42.2273 144.951 42.2273C144.32 42.2273 143.766 42.3977 143.289 42.7386C142.812 43.0739 142.439 43.5568 142.172 44.1875C141.911 44.8182 141.78 45.5739 141.78 46.4545C141.78 47.3466 141.911 48.1136 142.172 48.7557C142.434 49.392 142.8 49.8835 143.272 50.2301C143.749 50.571 144.309 50.7415 144.951 50.7415C145.405 50.7415 145.812 50.6562 146.169 50.4858C146.533 50.3097 146.837 50.0568 147.081 49.7273C147.326 49.3977 147.493 48.9972 147.584 48.5256H150.533C150.459 49.4517 150.187 50.2727 149.715 50.9886C149.243 51.6989 148.601 52.2557 147.789 52.6591C146.976 53.0568 146.022 53.2557 144.925 53.2557ZM158.577 53.2557C157.298 53.2557 156.19 52.9744 155.253 52.4119C154.315 51.8494 153.588 51.0625 153.071 50.0511C152.56 49.0398 152.304 47.858 152.304 46.5057C152.304 45.1534 152.56 43.9687 153.071 42.9517C153.588 41.9347 154.315 41.1449 155.253 40.5824C156.19 40.0199 157.298 39.7386 158.577 39.7386C159.855 39.7386 160.963 40.0199 161.901 40.5824C162.838 41.1449 163.563 41.9347 164.074 42.9517C164.591 43.9687 164.849 45.1534 164.849 46.5057C164.849 47.858 164.591 49.0398 164.074 50.0511C163.563 51.0625 162.838 51.8494 161.901 52.4119C160.963 52.9744 159.855 53.2557 158.577 53.2557ZM158.594 50.7841C159.287 50.7841 159.866 50.5937 160.332 50.2131C160.798 49.8267 161.145 49.3097 161.372 48.6619C161.605 48.0142 161.722 47.2926 161.722 46.4972C161.722 45.696 161.605 44.9716 161.372 44.3239C161.145 43.6705 160.798 43.1506 160.332 42.7642C159.866 42.3778 159.287 42.1847 158.594 42.1847C157.884 42.1847 157.293 42.3778 156.821 42.7642C156.355 43.1506 156.006 43.6705 155.773 44.3239C155.545 44.9716 155.432 45.696 155.432 46.4972C155.432 47.2926 155.545 48.0142 155.773 48.6619C156.006 49.3097 156.355 49.8267 156.821 50.2131C157.293 50.5937 157.884 50.7841 158.594 50.7841ZM175.612 47.4943V39.9091H178.697V53H175.706V50.6733H175.569C175.274 51.4062 174.788 52.0057 174.112 52.4716C173.441 52.9375 172.615 53.1705 171.632 53.1705C170.774 53.1705 170.015 52.9801 169.356 52.5994C168.703 52.2131 168.191 51.6534 167.822 50.9205C167.453 50.1818 167.268 49.2898 167.268 48.2443V39.9091H170.353V47.767C170.353 48.5966 170.581 49.2557 171.035 49.7443C171.49 50.233 172.086 50.4773 172.825 50.4773C173.279 50.4773 173.72 50.3665 174.146 50.1449C174.572 49.9233 174.921 49.5938 175.194 49.1562C175.473 48.7131 175.612 48.1591 175.612 47.4943ZM184.755 45.3295V53H181.67V39.9091H184.618V42.1335H184.772C185.073 41.4006 185.553 40.8182 186.212 40.3864C186.877 39.9545 187.698 39.7386 188.675 39.7386C189.579 39.7386 190.366 39.9318 191.036 40.3182C191.712 40.7045 192.235 41.2642 192.604 41.9972C192.979 42.7301 193.164 43.6193 193.158 44.6648V53H190.073V45.142C190.073 44.267 189.846 43.5824 189.391 43.0881C188.942 42.5937 188.32 42.3466 187.525 42.3466C186.985 42.3466 186.505 42.4659 186.084 42.7045C185.67 42.9375 185.343 43.2756 185.104 43.7188C184.871 44.1619 184.755 44.6989 184.755 45.3295ZM202.632 39.9091V42.2955H195.106V39.9091H202.632ZM196.964 36.7727H200.049V49.0625C200.049 49.4773 200.112 49.7955 200.237 50.017C200.367 50.233 200.538 50.3807 200.748 50.4602C200.958 50.5398 201.191 50.5795 201.447 50.5795C201.64 50.5795 201.816 50.5653 201.975 50.5369C202.14 50.5085 202.265 50.483 202.35 50.4602L202.87 52.8722C202.705 52.929 202.47 52.9915 202.163 53.0597C201.862 53.1278 201.492 53.1676 201.055 53.179C200.282 53.2017 199.586 53.0852 198.967 52.8295C198.347 52.5682 197.856 52.1648 197.492 51.6193C197.134 51.0739 196.958 50.392 196.964 49.5739V36.7727ZM216.475 53.2557C215.197 53.2557 214.089 52.9744 213.151 52.4119C212.214 51.8494 211.487 51.0625 210.969 50.0511C210.458 49.0398 210.202 47.858 210.202 46.5057C210.202 45.1534 210.458 43.9687 210.969 42.9517C211.487 41.9347 212.214 41.1449 213.151 40.5824C214.089 40.0199 215.197 39.7386 216.475 39.7386C217.754 39.7386 218.862 40.0199 219.799 40.5824C220.737 41.1449 221.461 41.9347 221.972 42.9517C222.489 43.9687 222.748 45.1534 222.748 46.5057C222.748 47.858 222.489 49.0398 221.972 50.0511C221.461 51.0625 220.737 51.8494 219.799 52.4119C218.862 52.9744 217.754 53.2557 216.475 53.2557ZM216.492 50.7841C217.185 50.7841 217.765 50.5937 218.231 50.2131C218.697 49.8267 219.043 49.3097 219.271 48.6619C219.504 48.0142 219.62 47.2926 219.62 46.4972C219.62 45.696 219.504 44.9716 219.271 44.3239C219.043 43.6705 218.697 43.1506 218.231 42.7642C217.765 42.3778 217.185 42.1847 216.492 42.1847C215.782 42.1847 215.191 42.3778 214.719 42.7642C214.254 43.1506 213.904 43.6705 213.671 44.3239C213.444 44.9716 213.33 45.696 213.33 46.4972C213.33 47.2926 213.444 48.0142 213.671 48.6619C213.904 49.3097 214.254 49.8267 214.719 50.2131C215.191 50.5937 215.782 50.7841 216.492 50.7841ZM228.252 45.3295V53H225.166V39.9091H228.115V42.1335H228.269C228.57 41.4006 229.05 40.8182 229.709 40.3864C230.374 39.9545 231.195 39.7386 232.172 39.7386C233.076 39.7386 233.863 39.9318 234.533 40.3182C235.209 40.7045 235.732 41.2642 236.101 41.9972C236.476 42.7301 236.661 43.6193 236.655 44.6648V53H233.57V45.142C233.57 44.267 233.343 43.5824 232.888 43.0881C232.439 42.5937 231.817 42.3466 231.022 42.3466C230.482 42.3466 230.002 42.4659 229.581 42.7045C229.166 42.9375 228.84 43.2756 228.601 43.7188C228.368 44.1619 228.252 44.6989 228.252 45.3295ZM245.345 53V39.9091H248.293V42.1335H248.447C248.72 41.3835 249.171 40.7983 249.802 40.3778C250.433 39.9517 251.186 39.7386 252.061 39.7386C252.947 39.7386 253.694 39.9545 254.302 40.3864C254.916 40.8125 255.347 41.3949 255.597 42.1335H255.734C256.024 41.4062 256.512 40.8267 257.2 40.3949C257.893 39.9574 258.714 39.7386 259.663 39.7386C260.867 39.7386 261.85 40.1193 262.612 40.8807C263.373 41.642 263.754 42.7528 263.754 44.2131V53H260.66V44.6903C260.66 43.8778 260.444 43.2841 260.012 42.9091C259.58 42.5284 259.052 42.3381 258.427 42.3381C257.683 42.3381 257.1 42.571 256.68 43.0369C256.265 43.4972 256.058 44.0966 256.058 44.8352V53H253.032V44.5625C253.032 43.8864 252.828 43.3466 252.418 42.9432C252.015 42.5398 251.487 42.3381 250.833 42.3381C250.39 42.3381 249.987 42.4517 249.623 42.679C249.259 42.9006 248.97 43.2159 248.754 43.625C248.538 44.0284 248.43 44.5 248.43 45.0398V53H245.345ZM272.394 53.2557C271.115 53.2557 270.008 52.9744 269.07 52.4119C268.133 51.8494 267.405 51.0625 266.888 50.0511C266.377 49.0398 266.121 47.858 266.121 46.5057C266.121 45.1534 266.377 43.9687 266.888 42.9517C267.405 41.9347 268.133 41.1449 269.07 40.5824C270.008 40.0199 271.115 39.7386 272.394 39.7386C273.672 39.7386 274.78 40.0199 275.718 40.5824C276.655 41.1449 277.38 41.9347 277.891 42.9517C278.408 43.9687 278.667 45.1534 278.667 46.5057C278.667 47.858 278.408 49.0398 277.891 50.0511C277.38 51.0625 276.655 51.8494 275.718 52.4119C274.78 52.9744 273.672 53.2557 272.394 53.2557ZM272.411 50.7841C273.104 50.7841 273.684 50.5937 274.15 50.2131C274.615 49.8267 274.962 49.3097 275.189 48.6619C275.422 48.0142 275.539 47.2926 275.539 46.4972C275.539 45.696 275.422 44.9716 275.189 44.3239C274.962 43.6705 274.615 43.1506 274.15 42.7642C273.684 42.3778 273.104 42.1847 272.411 42.1847C271.701 42.1847 271.11 42.3778 270.638 42.7642C270.172 43.1506 269.823 43.6705 269.59 44.3239C269.363 44.9716 269.249 45.696 269.249 46.4972C269.249 47.2926 269.363 48.0142 269.59 48.6619C269.823 49.3097 270.172 49.8267 270.638 50.2131C271.11 50.5937 271.701 50.7841 272.411 50.7841ZM281.085 53V39.9091H284.077V42.0909H284.213C284.452 41.3352 284.861 40.7528 285.44 40.3438C286.026 39.929 286.693 39.7216 287.443 39.7216C287.614 39.7216 287.804 39.7301 288.014 39.7472C288.23 39.7585 288.409 39.7784 288.551 39.8068V42.6449C288.42 42.5994 288.213 42.5597 287.929 42.5256C287.651 42.4858 287.381 42.4659 287.119 42.4659C286.557 42.4659 286.051 42.5881 285.602 42.8324C285.159 43.071 284.81 43.4034 284.554 43.8295C284.298 44.2557 284.17 44.7472 284.17 45.304V53H281.085ZM295.657 53.2557C294.345 53.2557 293.211 52.983 292.257 52.4375C291.308 51.8864 290.578 51.108 290.066 50.1023C289.555 49.0909 289.299 47.9006 289.299 46.5312C289.299 45.1847 289.555 44.0028 290.066 42.9858C290.583 41.9631 291.305 41.1676 292.231 40.5994C293.157 40.0256 294.245 39.7386 295.495 39.7386C296.302 39.7386 297.063 39.8693 297.779 40.1307C298.501 40.3864 299.137 40.7841 299.688 41.3239C300.245 41.8636 300.683 42.5511 301.001 43.3864C301.319 44.2159 301.478 45.2045 301.478 46.3523V47.2983H290.748V45.2188H298.521C298.515 44.6278 298.387 44.1023 298.137 43.642C297.887 43.1761 297.538 42.8097 297.089 42.5426C296.646 42.2756 296.129 42.142 295.538 42.142C294.907 42.142 294.353 42.2955 293.876 42.6023C293.399 42.9034 293.027 43.3011 292.76 43.7955C292.498 44.2841 292.365 44.821 292.359 45.4062V47.2216C292.359 47.983 292.498 48.6364 292.777 49.1818C293.055 49.7216 293.444 50.1364 293.944 50.4261C294.444 50.7102 295.029 50.8523 295.7 50.8523C296.149 50.8523 296.555 50.7898 296.919 50.6648C297.282 50.5341 297.598 50.3438 297.865 50.0938C298.132 49.8438 298.333 49.5341 298.47 49.1648L301.35 49.4886C301.169 50.25 300.822 50.9148 300.311 51.483C299.805 52.0455 299.157 52.483 298.367 52.7955C297.578 53.1023 296.674 53.2557 295.657 53.2557ZM316.178 39.9091V42.2955H308.653V39.9091H316.178ZM310.511 36.7727H313.596V49.0625C313.596 49.4773 313.659 49.7955 313.784 50.017C313.914 50.233 314.085 50.3807 314.295 50.4602C314.505 50.5398 314.738 50.5795 314.994 50.5795C315.187 50.5795 315.363 50.5653 315.522 50.5369C315.687 50.5085 315.812 50.483 315.897 50.4602L316.417 52.8722C316.252 52.929 316.016 52.9915 315.71 53.0597C315.409 53.1278 315.039 53.1676 314.602 53.179C313.829 53.2017 313.133 53.0852 312.514 52.8295C311.894 52.5682 311.403 52.1648 311.039 51.6193C310.681 51.0739 310.505 50.392 310.511 49.5739V36.7727ZM321.925 45.3295V53H318.84V35.5455H321.857V42.1335H322.01C322.317 41.3949 322.792 40.8125 323.434 40.3864C324.081 39.9545 324.905 39.7386 325.905 39.7386C326.814 39.7386 327.607 39.929 328.283 40.3097C328.959 40.6903 329.482 41.2472 329.851 41.9801C330.226 42.7131 330.414 43.608 330.414 44.6648V53H327.329V45.142C327.329 44.2614 327.101 43.5767 326.647 43.0881C326.198 42.5937 325.567 42.3466 324.755 42.3466C324.209 42.3466 323.721 42.4659 323.289 42.7045C322.863 42.9375 322.527 43.2756 322.283 43.7188C322.044 44.1619 321.925 44.6989 321.925 45.3295ZM337.126 53.2642C336.296 53.2642 335.549 53.1165 334.884 52.821C334.225 52.5199 333.702 52.0767 333.316 51.4915C332.935 50.9062 332.745 50.1847 332.745 49.3267C332.745 48.5881 332.881 47.9773 333.154 47.4943C333.427 47.0114 333.799 46.625 334.271 46.3352C334.742 46.0455 335.273 45.8267 335.864 45.679C336.461 45.5256 337.077 45.4148 337.714 45.3466C338.481 45.267 339.103 45.196 339.58 45.1335C340.058 45.0653 340.404 44.9631 340.62 44.8267C340.842 44.6847 340.952 44.4659 340.952 44.1705V44.1193C340.952 43.4773 340.762 42.9801 340.381 42.6278C340.001 42.2756 339.452 42.0994 338.737 42.0994C337.981 42.0994 337.381 42.2642 336.938 42.5938C336.501 42.9233 336.205 43.3125 336.052 43.7614L333.171 43.3523C333.398 42.5568 333.773 41.892 334.296 41.358C334.819 40.8182 335.458 40.4148 336.214 40.1477C336.969 39.875 337.805 39.7386 338.719 39.7386C339.35 39.7386 339.978 39.8125 340.603 39.9602C341.228 40.108 341.799 40.3523 342.316 40.6932C342.833 41.0284 343.248 41.4858 343.56 42.0653C343.879 42.6449 344.038 43.3693 344.038 44.2386V53H341.072V51.2017H340.969C340.782 51.5653 340.518 51.9062 340.177 52.2244C339.842 52.5369 339.418 52.7898 338.907 52.983C338.401 53.1705 337.808 53.2642 337.126 53.2642ZM337.927 50.9972C338.546 50.9972 339.083 50.875 339.538 50.6307C339.992 50.3807 340.342 50.0511 340.586 49.642C340.836 49.233 340.961 48.7869 340.961 48.304V46.7614C340.864 46.8409 340.7 46.9148 340.467 46.983C340.239 47.0511 339.984 47.1108 339.7 47.1619C339.415 47.2131 339.134 47.2585 338.856 47.2983C338.577 47.3381 338.336 47.3722 338.131 47.4006C337.671 47.4631 337.259 47.5653 336.896 47.7074C336.532 47.8494 336.245 48.0483 336.035 48.304C335.825 48.554 335.719 48.8778 335.719 49.2756C335.719 49.8438 335.927 50.2727 336.342 50.5625C336.756 50.8523 337.285 50.9972 337.927 50.9972ZM350.025 45.3295V53H346.94V39.9091H349.889V42.1335H350.042C350.343 41.4006 350.823 40.8182 351.483 40.3864C352.147 39.9545 352.968 39.7386 353.946 39.7386C354.849 39.7386 355.636 39.9318 356.306 40.3182C356.983 40.7045 357.505 41.2642 357.875 41.9972C358.25 42.7301 358.434 43.6193 358.429 44.6648V53H355.343V45.142C355.343 44.267 355.116 43.5824 354.661 43.0881C354.213 42.5937 353.59 42.3466 352.795 42.3466C352.255 42.3466 351.775 42.4659 351.355 42.7045C350.94 42.9375 350.613 43.2756 350.375 43.7188C350.142 44.1619 350.025 44.6989 350.025 45.3295ZM374.183 35.5455V53H371.021V38.6222H370.919L366.837 41.2301V38.3324L371.175 35.5455H374.183ZM384.867 53.3324C383.464 53.3324 382.259 52.9773 381.253 52.267C380.253 51.5511 379.483 50.5199 378.944 49.1733C378.41 47.821 378.142 46.1932 378.142 44.2898C378.148 42.3864 378.418 40.767 378.952 39.4318C379.492 38.0909 380.262 37.0682 381.262 36.3636C382.267 35.6591 383.469 35.3068 384.867 35.3068C386.265 35.3068 387.466 35.6591 388.472 36.3636C389.478 37.0682 390.248 38.0909 390.782 39.4318C391.321 40.7727 391.591 42.392 391.591 44.2898C391.591 46.1989 391.321 47.8295 390.782 49.1818C390.248 50.5284 389.478 51.5568 388.472 52.267C387.472 52.9773 386.27 53.3324 384.867 53.3324ZM384.867 50.6648C385.958 50.6648 386.819 50.1278 387.449 49.054C388.086 47.9744 388.404 46.3864 388.404 44.2898C388.404 42.9034 388.259 41.7386 387.969 40.7955C387.679 39.8523 387.27 39.142 386.742 38.6648C386.214 38.1818 385.589 37.9403 384.867 37.9403C383.782 37.9403 382.924 38.4801 382.293 39.5597C381.662 40.6335 381.344 42.2102 381.339 44.2898C381.333 45.6818 381.472 46.8523 381.756 47.8011C382.046 48.75 382.455 49.4659 382.983 49.9489C383.512 50.4261 384.14 50.6648 384.867 50.6648ZM400.675 53.3324C399.271 53.3324 398.067 52.9773 397.061 52.267C396.061 51.5511 395.291 50.5199 394.751 49.1733C394.217 47.821 393.95 46.1932 393.95 44.2898C393.956 42.3864 394.226 40.767 394.76 39.4318C395.3 38.0909 396.07 37.0682 397.07 36.3636C398.075 35.6591 399.277 35.3068 400.675 35.3068C402.072 35.3068 403.274 35.6591 404.28 36.3636C405.286 37.0682 406.055 38.0909 406.589 39.4318C407.129 40.7727 407.399 42.392 407.399 44.2898C407.399 46.1989 407.129 47.8295 406.589 49.1818C406.055 50.5284 405.286 51.5568 404.28 52.267C403.28 52.9773 402.078 53.3324 400.675 53.3324ZM400.675 50.6648C401.766 50.6648 402.626 50.1278 403.257 49.054C403.893 47.9744 404.212 46.3864 404.212 44.2898C404.212 42.9034 404.067 41.7386 403.777 40.7955C403.487 39.8523 403.078 39.142 402.55 38.6648C402.021 38.1818 401.396 37.9403 400.675 37.9403C399.589 37.9403 398.732 38.4801 398.101 39.5597C397.47 40.6335 397.152 42.2102 397.146 44.2898C397.141 45.6818 397.28 46.8523 397.564 47.8011C397.854 48.75 398.263 49.4659 398.791 49.9489C399.32 50.4261 399.947 50.6648 400.675 50.6648ZM426.957 35.5455H430.119V46.9489C430.119 48.1989 429.824 49.2983 429.233 50.2472C428.648 51.196 427.824 51.9375 426.761 52.4716C425.699 53 424.457 53.2642 423.037 53.2642C421.611 53.2642 420.366 53 419.304 52.4716C418.241 51.9375 417.417 51.196 416.832 50.2472C416.247 49.2983 415.954 48.1989 415.954 46.9489V35.5455H419.116V46.6847C419.116 47.4119 419.275 48.0597 419.594 48.6278C419.917 49.196 420.372 49.642 420.957 49.9659C421.542 50.2841 422.236 50.4432 423.037 50.4432C423.838 50.4432 424.531 50.2841 425.116 49.9659C425.707 49.642 426.162 49.196 426.48 48.6278C426.798 48.0597 426.957 47.4119 426.957 46.6847V35.5455ZM442.842 40.3438C442.762 39.5994 442.427 39.0199 441.836 38.6051C441.251 38.1903 440.489 37.983 439.552 37.983C438.893 37.983 438.328 38.0824 437.856 38.2812C437.384 38.4801 437.024 38.75 436.774 39.0909C436.524 39.4318 436.396 39.821 436.39 40.2585C436.39 40.6222 436.472 40.9375 436.637 41.2045C436.808 41.4716 437.038 41.6989 437.328 41.8864C437.617 42.0682 437.938 42.2216 438.291 42.3466C438.643 42.4716 438.998 42.5767 439.356 42.6619L440.992 43.071C441.651 43.2244 442.285 43.4318 442.893 43.6932C443.507 43.9545 444.055 44.2841 444.538 44.6818C445.026 45.0795 445.413 45.5597 445.697 46.1222C445.981 46.6847 446.123 47.3437 446.123 48.0994C446.123 49.1222 445.862 50.0227 445.339 50.8011C444.816 51.5739 444.061 52.179 443.072 52.6165C442.089 53.0483 440.899 53.2642 439.501 53.2642C438.143 53.2642 436.964 53.054 435.964 52.6335C434.97 52.2131 434.191 51.5994 433.629 50.7926C433.072 49.9858 432.771 49.0028 432.725 47.8438H435.836C435.882 48.4517 436.069 48.9574 436.399 49.3608C436.728 49.7642 437.157 50.0653 437.686 50.2642C438.22 50.4631 438.816 50.5625 439.475 50.5625C440.163 50.5625 440.765 50.4602 441.282 50.2557C441.805 50.0455 442.214 49.7557 442.509 49.3864C442.805 49.0114 442.955 48.5739 442.961 48.0739C442.955 47.6193 442.822 47.2443 442.561 46.9489C442.299 46.6477 441.933 46.3977 441.461 46.1989C440.995 45.9943 440.45 45.8125 439.825 45.6534L437.839 45.142C436.401 44.7727 435.265 44.2131 434.43 43.4631C433.6 42.7074 433.186 41.7045 433.186 40.4545C433.186 39.4261 433.464 38.5256 434.021 37.7528C434.583 36.9801 435.347 36.3807 436.313 35.9545C437.279 35.5227 438.373 35.3068 439.595 35.3068C440.833 35.3068 441.918 35.5227 442.85 35.9545C443.788 36.3807 444.524 36.9744 445.058 37.7358C445.592 38.4915 445.867 39.3608 445.884 40.3438H442.842ZM454.657 53H448.742V35.5455H454.776C456.509 35.5455 457.998 35.8949 459.242 36.5938C460.492 37.2869 461.452 38.2841 462.123 39.5852C462.793 40.8864 463.128 42.4432 463.128 44.2557C463.128 46.0739 462.79 47.6364 462.114 48.9432C461.444 50.25 460.475 51.2528 459.208 51.9517C457.946 52.6506 456.429 53 454.657 53ZM451.904 50.2642H454.503C455.719 50.2642 456.733 50.0426 457.546 49.5994C458.358 49.1506 458.969 48.483 459.378 47.5966C459.787 46.7045 459.992 45.5909 459.992 44.2557C459.992 42.9205 459.787 41.8125 459.378 40.9318C458.969 40.0455 458.364 39.3835 457.563 38.946C456.767 38.5028 455.779 38.2812 454.597 38.2812H451.904V50.2642Z" fill="white"/>
</svg>
