<svg width="124" height="41" viewBox="0 0 124 41" fill="none" xmlns="http://www.w3.org/2000/svg">
<rect y="0.768555" width="124" height="39.2778" rx="6" fill="#1C1C1C"/>
<path d="M38.1176 11.234H35.5789V11.9334H37.3795C37.2904 12.9142 36.4116 13.3325 35.582 13.3325C34.5206 13.3325 33.5944 12.5571 33.5944 11.4704C33.5944 10.4117 34.4773 9.59647 35.5842 9.59647C36.4385 9.59647 36.9417 10.1019 36.9417 10.1019L37.4692 9.59476C37.4692 9.59476 36.7921 8.89502 35.5573 8.89502C33.985 8.89502 32.7687 10.1271 32.7687 11.4578C32.7687 12.762 33.9129 14.0334 35.5973 14.0334C37.0791 14.0334 38.1637 13.0912 38.1637 11.6978C38.1637 11.4038 38.1176 11.234 38.1176 11.234Z" fill="white"/>
<path d="M38.5959 22.5065H44.1744C44.1783 22.5212 44.2752 22.8925 44.2752 23.5254C44.2752 26.5874 41.8921 28.6581 38.6364 28.6581C34.9347 28.6581 32.4205 25.864 32.4205 22.9986C32.4205 20.0743 35.0934 17.3669 38.5484 17.367C41.2617 17.367 42.7494 18.9046 42.7494 18.9046L41.5903 20.0189C41.5903 20.0189 40.4844 18.9081 38.6076 18.9081C36.1751 18.9081 34.235 20.6996 34.235 23.0259C34.235 25.4138 36.2702 27.1176 38.6025 27.1176C40.4255 27.1176 42.3567 26.1985 42.5523 24.0434H38.5959V22.5065Z" fill="white"/>
<path fill-rule="evenodd" clip-rule="evenodd" d="M44.9869 24.9927C44.9869 23.0549 46.6273 21.3935 48.9165 21.3935C50.798 21.3935 52.8385 22.6313 52.8385 25.0349C52.8385 27.132 51.0843 28.6515 48.9431 28.6515C46.5779 28.6515 44.9869 26.9591 44.9869 24.9927ZM51.1315 25.0254C51.1315 23.6639 50.0648 22.8188 48.9391 22.8188C47.6743 22.8188 46.7022 23.7577 46.7022 25.0148C46.7022 26.2994 47.6865 27.227 48.9339 27.227C50.0693 27.227 51.1315 26.3579 51.1315 25.0254Z" fill="white"/>
<path fill-rule="evenodd" clip-rule="evenodd" d="M57.5553 21.3935C55.2662 21.3935 53.6257 23.0549 53.6257 24.9927C53.6257 26.9591 55.2168 28.6515 57.5822 28.6515C59.7233 28.6515 61.4774 27.132 61.4774 25.0349C61.4774 22.6313 59.4371 21.3935 57.5553 21.3935ZM57.578 22.8188C58.7036 22.8188 59.7704 23.6639 59.7704 25.0254C59.7704 26.3579 58.7082 27.227 57.5727 27.227C56.3254 27.227 55.3413 26.2994 55.3413 25.0148C55.3413 23.7577 56.3131 22.8188 57.578 22.8188Z" fill="white"/>
<path fill-rule="evenodd" clip-rule="evenodd" d="M62.2644 25.0233C62.2644 23.1057 63.9161 21.3973 66.017 21.3973C66.9317 21.3973 67.6208 21.726 68.1246 22.2302V21.6155H69.7634V28.1365C69.7634 30.6986 68.1713 31.9199 66.0822 31.9199C64.1724 31.9199 63.0996 30.8297 62.5665 29.783L64.0689 29.1999C64.277 29.6675 64.8759 30.4922 66.0698 30.4922C67.3057 30.4922 68.1245 29.742 68.1245 28.49V27.7744C67.6872 28.2456 67.0949 28.6562 65.9807 28.6562C64.1791 28.6562 62.2644 27.2077 62.2644 25.0233ZM66.169 22.8199C67.1992 22.8199 68.257 23.6365 68.257 25.0311C68.257 26.4486 67.2014 27.2297 66.1463 27.2297C65.0264 27.2297 63.984 26.3854 63.984 25.0445C63.984 23.6513 65.0665 22.8199 66.169 22.8199Z" fill="white"/>
<path fill-rule="evenodd" clip-rule="evenodd" d="M73.7488 25.0128C73.7488 22.8526 75.4128 21.3885 77.3947 21.3885C78.9578 21.3885 80.1389 22.3565 80.6452 23.5153L80.9174 24.107L75.6761 26.1261C75.9892 26.6672 76.4946 27.2259 77.5933 27.226C78.5715 27.226 79.1578 26.7322 79.5085 26.2269L80.8596 27.0616C80.2538 27.8143 79.2388 28.6542 77.585 28.6542C75.6035 28.6542 73.7488 27.2986 73.7488 25.0128ZM77.4631 22.7844C78.1772 22.7844 78.6911 23.1368 78.9094 23.5595L75.4092 24.9177C75.2584 23.8662 76.3316 22.7844 77.4631 22.7844Z" fill="white"/>
<path d="M72.7993 28.4388H71.0777V17.7423H72.7993V28.4388Z" fill="white"/>
<path d="M94.1598 28.4388H95.8814V17.7423H94.1598V28.4388Z" fill="white"/>
<path fill-rule="evenodd" clip-rule="evenodd" d="M86.7519 28.4388H85.0303V17.7423L89.1948 17.7422C91.2135 17.7422 92.8651 19.2755 92.8651 21.1498C92.8651 23.0239 91.2135 24.5572 89.1948 24.5572H86.7519V28.4388ZM86.7519 22.9589V19.3405H89.1947C90.2633 19.3405 91.1436 20.1577 91.1436 21.1498C91.1436 22.1417 90.2633 22.9589 89.1947 22.9589H86.7519Z" fill="white"/>
<path d="M108.592 31.9199L113.577 21.3888H111.697L109.441 26.1544L107.185 21.3888H105.305L108.501 28.1407L106.712 31.9199H108.592Z" fill="white"/>
<path fill-rule="evenodd" clip-rule="evenodd" d="M102.927 28.4388H104.649V24.5917C104.918 20.6239 99.5001 19.6907 97.45 22.5511L98.8354 23.4141C99.8378 21.787 102.698 22.1614 102.886 23.9052C102.027 23.6937 101.098 23.5405 100.249 23.6202C98.9249 23.7446 97.7909 24.5255 97.6107 25.8046C97.5133 26.4958 97.6795 27.3478 98.1992 27.867C99.0092 28.676 100.339 28.785 101.431 28.5086C102.046 28.3529 102.531 28.0136 102.927 27.5754V28.4388ZM101.022 27.1143C101.964 26.8761 102.707 26.2362 102.927 25.3467C102.446 25.2019 102.002 25.085 101.495 25.0281C98.5361 24.6152 99.0314 27.6182 101.022 27.1143Z" fill="white"/>
<path d="M49.2774 13.9337H48.494V9.06585H49.2774V13.9337Z" fill="white"/>
<path d="M44.1063 13.9337H44.8899V9.79319H46.1759V9.06585H42.8203V9.79319H44.1063V13.9337Z" fill="white"/>
<path d="M41.9942 13.9337H38.9896V9.06585H41.9942V9.79319H39.7731V11.1361H41.7268V11.8635H39.7731V13.2063H41.9942V13.9337Z" fill="white"/>
<path d="M51.9847 13.9337V9.79319H53.2707V9.06585H49.9152V9.79319H51.2013V13.9337H51.9847Z" fill="white"/>
<path fill-rule="evenodd" clip-rule="evenodd" d="M55.2866 11.4578C55.2866 10.127 56.503 8.89502 58.0754 8.89502C59.6477 8.89502 60.8641 10.127 60.8641 11.4578C60.8641 12.7515 59.738 14.013 58.0754 14.0329C56.4127 14.013 55.2866 12.7515 55.2866 11.4578ZM58.0754 13.3322C57.0243 13.3202 56.1124 12.5487 56.1124 11.4704C56.1124 10.4204 56.9811 9.60982 58.0754 9.5967C59.1698 9.60982 60.0383 10.4204 60.0383 11.4704C60.0383 12.5487 59.1264 13.3202 58.0754 13.3322Z" fill="white"/>
<path d="M62.4302 13.9337H61.6467V9.06585H62.4302L64.9452 12.6098V9.06585H65.7287V13.9337H64.9465L62.4302 10.3879V13.9337Z" fill="white"/>
<path d="M11.376 14.9668L20.2282 23.173L11.4185 31.4512C11.1614 31.2996 11.0236 30.9711 11.0213 30.5469L10.9414 15.8544C10.939 15.3898 11.121 15.1064 11.376 14.9668Z" fill="white"/>
<path d="M12.383 14.9779L23.1472 20.4302L20.5943 22.8289L12.0074 14.8683C12.1374 14.8841 12.268 14.9196 12.383 14.9779Z" fill="white"/>
<path d="M23.6259 25.6392L20.9631 23.1706L23.6232 20.6712L27.2865 22.5265C28.1889 22.9834 27.7273 23.5549 27.2865 23.7789L23.6259 25.6392Z" fill="white"/>
<path d="M12.383 31.352C12.3017 31.3942 12.2233 31.4273 12.1482 31.4535L20.5969 23.5148L23.1494 25.8811L12.383 31.352Z" fill="white"/>
</svg>
