<svg width="44" height="44" viewBox="0 0 44 44" fill="none" xmlns="http://www.w3.org/2000/svg">
<g opacity="0.8">
<path fill-rule="evenodd" clip-rule="evenodd" d="M14.4676 1.91309H37.185C40.9489 1.91309 44.0002 5.28555 44.0002 9.44569V34.5544C44.0002 38.7145 40.9489 42.087 37.185 42.087H14.4676C10.7036 42.087 7.65234 38.7145 7.65234 34.5544L7.65234 9.44569C7.65234 5.28555 10.7036 1.91309 14.4676 1.91309Z" fill="#0D6EFD" fill-opacity="0.2"/>
<path fill-rule="evenodd" clip-rule="evenodd" d="M8.13046 1.91309H32.0435C36.0055 1.91309 39.2174 5.28555 39.2174 9.44569V34.5544C39.2174 38.7145 36.0055 42.087 32.0435 42.087H8.13046C4.16841 42.087 0.956542 38.7145 0.956543 34.5544L0.956543 9.44569C0.956543 5.28555 4.16841 1.91309 8.13046 1.91309Z" fill="#0D6EFD"/>
<g opacity="0.7">
<path opacity="0.3" fill-rule="evenodd" clip-rule="evenodd" d="M15.2898 18.3563H14.3092C14.2587 18.3563 14.1837 18.4266 14.1808 18.4731L13.4585 30.1478L26.9544 30.1452L26.2249 18.4731C26.2221 18.4284 26.1453 18.3563 26.0965 18.3563H25.116V20.3216C25.116 20.8643 24.676 21.3042 24.1334 21.3042C23.5907 21.3042 23.1507 20.8643 23.1507 20.3216V18.3563H17.255V20.3216C17.255 20.8643 16.8151 21.3042 16.2724 21.3042C15.7297 21.3042 15.2898 20.8643 15.2898 20.3216V18.3563Z" fill="white"/>
<path fill-rule="evenodd" clip-rule="evenodd" d="M20.203 11.4783C22.9151 11.4783 25.1162 13.6796 25.1162 16.3891L26.0967 16.3914C27.1832 16.3914 28.119 17.2704 28.1865 18.3508L28.9242 30.1539C28.9918 31.2361 28.1695 32.1133 27.0862 32.1133H13.3199C12.2372 32.1133 11.4144 31.2344 11.4819 30.1539L12.2196 18.3508C12.2872 17.2686 13.221 16.3914 14.3094 16.3914H15.2899C15.2899 13.6781 17.4928 11.4783 20.203 11.4783ZM23.1509 16.3915C23.1509 14.765 21.8297 13.4436 20.203 13.4436C18.5776 13.4436 17.2552 14.7642 17.2552 16.3892L23.1509 16.3915ZM15.2899 18.3566H14.3094C14.2589 18.3566 14.1839 18.4269 14.181 18.4733L13.4587 30.148L26.9546 30.1455L26.2251 18.4733C26.2223 18.4286 26.1454 18.3566 26.0967 18.3566H25.1162V20.3218C25.1162 20.8645 24.6762 21.3044 24.1335 21.3044C23.5908 21.3044 23.1509 20.8645 23.1509 20.3218V18.3566H17.2552V20.3218C17.2552 20.8645 16.8152 21.3044 16.2726 21.3044C15.7299 21.3044 15.2899 20.8645 15.2899 20.3218V18.3566Z" fill="white"/>
</g>
</g>
</svg>
